<svg xmlns:dc="http://purl.org/dc/elements/1.1/" xmlns:cc="http://creativecommons.org/ns#" xmlns:rdf="http://www.w3.org/1999/02/22-rdf-syntax-ns#" xmlns:svg="http://www.w3.org/2000/svg" xmlns="http://www.w3.org/2000/svg" xmlns:sodipodi="http://sodipodi.sourceforge.net/DTD/sodipodi-0.dtd" xmlns:inkscape="http://www.inkscape.org/namespaces/inkscape" version="1.1" xml:space="preserve" width="880" height="880" sodipodi:docname="devil-horns-stencil-silhouette-freesvg.org.svg" inkscape:version="0.92.4 (5da689c313, 2019-01-14)" style=""><rect id="backgroundrect" width="100%" height="100%" x="0" y="0" fill="none" stroke="none"/><metadata id="metadata5133"><rdf:RDF><cc:Work rdf:about=""><dc:format>image/svg+xml</dc:format><dc:type rdf:resource="http://purl.org/dc/dcmitype/StillImage"/><dc:title/></cc:Work></rdf:RDF></metadata><defs id="defs5131"><clipPath clipPathUnits="userSpaceOnUse" id="clipPath5143"><path d="M 0,660 H 660 V 0 H 0 Z" id="path5141" inkscape:connector-curvature="0"/></clipPath></defs><sodipodi:namedview pagecolor="#ffffff" bordercolor="#666666" borderopacity="1" objecttolerance="10" gridtolerance="10" guidetolerance="10" inkscape:pageopacity="0" inkscape:pageshadow="2" inkscape:window-width="1920" inkscape:window-height="1018" id="namedview5129" showgrid="false" showguides="false" inkscape:zoom="0.5512987" inkscape:cx="663.72881" inkscape:cy="430.67797" inkscape:window-x="-8" inkscape:window-y="-8" inkscape:window-maximized="1" inkscape:current-layer="g5135"/><g class="currentLayer" style=""><title>Layer 1</title><g id="g5135" inkscape:groupmode="layer" inkscape:label="devil-horns-stencil-silhouette-freesvg.org" class="selected" fill="#f29b10" fill-opacity="1" stroke-opacity="1" stroke="#242424"><g id="g5923" stroke-width="0" fill="#f29b10" fill-opacity="1" stroke="#242424" stroke-opacity="1"><path inkscape:connector-curvature="0" id="path5145" style="fill-rule: nonzero;" d="m41.5213322953,913.5279991618 h4.902666544100001 c1.5133332955,0 2.7013332657999998,-0.14133332980000002 3.5626665776000004,-0.4239999894000001 c0.8613333118000002,-0.28266665960000004 1.5479999613000002,-0.6799999830000001 2.0599999485,-1.1906666369000003 c0.719999982,-0.7213333153000001 1.2813333013000001,-1.6919999577000002 1.6826666246000002,-2.9093332606 c0.40266665660000006,-1.2186666362 0.6039999849000001,-2.6959999326 0.6039999849000001,-4.4293332226 c0,-2.4053332732 -0.39333332350000005,-4.253333227 -1.1826666371000003,-5.5453331947 c-0.7879999803000002,-1.2893333011 -1.746666623,-2.1559999461 -2.8733332615000005,-2.5946666018 c-0.8159999796000001,-0.31333332550000004 -2.1253332802,-0.4693333216000001 -3.9319999017,-0.4693333216000001 h-4.8239998794000005 zm-3.0426665906,2.7079999323000004 v-22.9799994255 h7.909333135600001 c1.7839999554000001,0 3.146666588,0.10933333060000003 4.0866665645,0.3293333251000001 c1.3146666338,0.3039999924000001 2.4373332724,0.8519999787000002 3.3666665825,1.6466666255000002 c1.2106666364,1.0226666411000003 2.1159999471,2.3319999417000004 2.7159999321,3.9253332352 c0.6013333183,1.5933332935000002 0.9013333108000002,3.4159999146000004 0.9013333108000002,5.4639998634 c0,1.7439999564000002 -0.20399999490000004,3.2919999177 -0.6106666514000001,4.6386665507 c-0.40666665650000006,1.3479999663 -0.9293333101000003,2.4639999384 -1.5666666275,3.3466665829999998 c-0.6359999841,0.8839999779000002 -1.3333333,1.5786666272 -2.0906666144000003,2.0853332812 c-0.7559999811000001,0.5066666540000001 -1.6693332916,0.8906666444000002 -2.7399999315000003,1.1519999712000002 c-1.0693333066000001,0.26133332680000004 -2.2986666092000005,0.3919999902000001 -3.6879999078,0.3919999902000001 z" stroke-width="0" fill="#f29b10" fill-opacity="1" stroke="#242424" stroke-opacity="1"/><path inkscape:connector-curvature="0" id="path5147" style="fill-rule: nonzero;" d="m63.3946650818,906.3186660087 h9.2919997677 c-0.12533333020000004,-1.4026666316 -0.4799999880000001,-2.4559999386 -1.0653333067000001,-3.1573332544 c-0.8986666442000002,-1.0893333061000001 -2.0639999484000002,-1.6333332925000001 -3.4946665793,-1.6333332925000001 c-1.2946666343,0 -2.3839999404000003,0.43466665580000013 -3.2666665850000003,1.3039999674 c-0.8826666446000002,0.8679999783000002 -1.3706666324,2.0306666159000004 -1.4653332967000001,3.4866665795000005 m9.2613331018,4.5426665531 l2.9159999271,0.37466665730000004 c-0.4599999885000001,1.7026666241000004 -1.3106666339,3.0239999244 -2.5533332695,3.9639999008999998 c-1.2413333023000002,0.9399999765000001 -2.8293332626,1.4106666314 -4.7613332143000004,1.4106666314 c-2.4319999392000002,0 -4.362666557600001,-0.7493333146000001 -5.786666522,-2.2493332771000003 c-1.4253332977,-1.4986666292000002 -2.1373332799000004,-3.6013332433 -2.1373332799000004,-6.3079998423 c0,-2.7999999300000002 0.719999982,-4.9719998757 2.1613332793,-6.5186665037000004 c1.439999964,-1.5466666280000003 3.3093332506000004,-2.3199999420000004 5.606666526500001,-2.3199999420000004 c2.2239999444000005,0 4.039999899,0.7573333144000001 5.4506665304,2.2719999432000004 c1.4093332981,1.5146666288000001 2.1146666138000003,3.6466665755000007 2.1146666138000003,6.391999840200001 c0,0.1679999958 -0.005333333200000002,0.4199999895000001 -0.015999999600000002,0.7533333145000001 h-12.4226663561 c0.10533333070000002,1.8306666209 0.6226666511000001,3.2333332525 1.5533332945,4.2066665615000005 c0.9306666434000003,0.9719999757000002 2.0919999477,1.4599999635 3.4826665796000005,1.4599999635 c1.0346666408,0 1.9186666187,-0.27333332650000003 2.6506666004,-0.8213333128000002 c0.7319999817000001,-0.5466666530000001 1.3119999672,-1.4186666312 1.7413332898000002,-2.6159999346000005 " stroke-width="0" fill="#f29b10" fill-opacity="1" stroke="#242424" stroke-opacity="1"/><path inkscape:connector-curvature="0" id="path5149" style="fill-rule: nonzero;" d="m77.9853313837,911.2559992186 l2.7919999302,-0.4373333224000001 c0.15733332940000003,1.1226666386000002 0.5933333185000002,1.9853332837000002 1.3106666339,2.5826666021 c0.7173333154000001,0.5973333184000001 1.7186666237000003,0.8973333109000002 3.0053332582000003,0.8973333109000002 c1.2973333009,0 2.2599999435000004,-0.26533332670000004 2.8879999278,-0.7933333135000001 c0.6279999843,-0.5293333201000001 0.9413333098000002,-1.1479999713000002 0.9413333098000002,-1.8613332868000003 c0,-0.6386666507000001 -0.2759999931,-1.1399999715000002 -0.8266666460000002,-1.506666629 c-0.38533332370000006,-0.25199999370000004 -1.3466666330000001,-0.5706666524000001 -2.8839999279000006,-0.9586666427000001 c-2.0719999482,-0.5226666536000001 -3.5079999123000003,-0.9746666423000002 -4.3079998923,-1.3546666328 c-0.7999999800000002,-0.38133332380000007 -1.4066666315,-0.9079999773000003 -1.8199999545,-1.5826666271 c-0.4133333230000001,-0.6733333165000001 -0.6186666512000001,-1.4173332979 -0.6186666512000001,-2.2319999442000005 c0,-0.7426666481 0.1693333291,-1.4279999643 0.5093333206000001,-2.0599999485 c0.3386666582,-0.6333333175000001 0.8026666466000002,-1.1573333044000003 1.386666632,-1.5759999606 c0.43866665570000013,-0.32266665860000004 1.0373333074000002,-0.5973333184000001 1.7959999551,-0.8213333128000002 c0.7573333144000001,-0.22533332770000006 1.5693332941000002,-0.3373333249 2.4373332724,-0.3373333249 c1.3053333007,0 2.453333272,0.18799999530000003 3.4399999140000004,0.5639999859000001 c0.9879999753000002,0.37599999060000006 1.7173332904,0.8853333112000003 2.1879999453,1.5266666285000001 c0.4693333216000001,0.6426666506000001 0.7933333135000001,1.4999999625 0.9719999757000002,2.5759999356 l-2.7506665979000005,0.37466665730000004 c-0.12533333020000004,-0.8559999786000002 -0.4893333211000001,-1.5253332952000003 -1.0906666394000002,-2.0066666165 c-0.6013333183,-0.48133332130000006 -1.4519999637,-0.7213333153000001 -2.5493332696,-0.7213333153000001 c-1.2986666342,0 -2.2239999444000005,0.21466666130000006 -2.7786665972000004,0.6439999839000001 c-0.5546666528,0.4279999893000001 -0.8306666459000002,0.9306666434000003 -0.8306666459000002,1.506666629 c0,0.36666665750000005 0.11466666380000003,0.6973333159 0.3453333247,0.9893333086000001 c0.22933332760000003,0.3039999924000001 0.5906666519000001,0.5559999861000001 1.0813333063000001,0.7546666478000001 c0.28266665960000004,0.10533333070000002 1.1146666388000002,0.3453333247 2.4959999376,0.7213333153000001 c1.9973332834000002,0.5346666533000001 3.3906665819,0.9706666424000001 4.1773332289,1.3093333006 c0.7866666470000001,0.33999999150000004 1.4039999649,0.8333333125000002 1.8519999537,1.4799999630000003 c0.44799998880000014,0.6493333171000001 0.6719999832,1.4519999637 0.6719999832,2.413333273 c0,0.9399999765000001 -0.27466665980000005,1.8253332877000001 -0.8226666461000002,2.6559999336 c-0.5493333196000001,0.8293333126000002 -1.3413332998,1.4719999632000003 -2.3773332739,1.9266666185 c-1.0346666408,0.4546666553000001 -2.2053332782000004,0.6813333163 -3.5119999122000007,0.6813333163 c-2.1639999459000006,0 -3.8146665713000005,-0.4506666554000001 -4.947999876300001,-1.3506666328999999 c-1.1359999716000002,-0.8986666442000002 -1.8599999535,-2.2333332775000003 -2.1733332790000004,-4.0039998999 " stroke-width="0" fill="#f29b10" fill-opacity="1" stroke="#242424" stroke-opacity="1"/><path inkscape:connector-curvature="0" id="path5151" style="fill-rule: nonzero;" d="m95.1706642874,899.5893328436 h2.8119999297000002 v16.6453329172 h-2.8119999297000002 zm0,-6.333333175 h2.8119999297000002 v3.2506665854000003 h-2.8119999297000002 z" stroke-width="0" fill="#f29b10" fill-opacity="1" stroke="#242424" stroke-opacity="1"/><path inkscape:connector-curvature="0" id="path5153" style="fill-rule: nonzero;" d="m104.10399739740001,907.6159993096 c0,2.1853332787000004 0.4333333225000001,3.7786665722 1.2986666342,4.781333213800001 c0.8666666450000002,1.0039999749000001 1.9519999512000001,1.5053332957 3.2559999186,1.5053332957 c1.293333301,0 2.3786666072,-0.4986666542000001 3.2559999186,-1.4973332959 c0.8759999781000002,-0.9973333084000002 1.3133333005,-2.5626666026000002 1.3133333005,-4.695999882600001 c0,-2.0373332824 -0.4506666554000001,-3.5733332440000005 -1.3533332995,-4.6093332181 c-0.9026666441000002,-1.0333333075 -1.9893332836000002,-1.5519999612000002 -3.2639999184,-1.5519999612000002 c-1.2506666354000002,0 -2.3159999421000004,0.5106666539000001 -3.1919999202000002,1.5293332951 c-0.8759999781000002,1.0186666412000003 -1.3146666338,2.5319999367 -1.3146666338,4.5386665532 m-2.333333275,9.994666416800001 l2.7493332645999997,0.4173333229000001 c0.11466666380000003,0.8426666456000002 0.4333333225000001,1.4573332969000001 0.9546666428000001,1.8426666206000002 c0.6986666492000001,0.5213333203000001 1.6533332920000001,0.7813333138000002 2.8626665951000003,0.7813333138000002 c1.3039999674,0 2.3106666089,-0.26133332680000004 3.0199999245000004,-0.7839999804000002 c0.7079999823,-0.5226666536000001 1.1893333036000002,-1.2546666353000002 1.4386666307,-2.1959999451000005 c0.14666666300000003,-0.5759999856000001 0.21333332800000004,-1.7826666221000003 0.20399999490000004,-3.6239999094 c-1.2319999692,1.4586666302000002 -2.7666665975000004,2.1879999453 -4.6039998849,2.1879999453 c-2.2866666095,0 -4.0573332319,-0.8253333127000002 -5.3093332006,-2.4773332714 c-1.2533333020000001,-1.6506666254 -1.8786666197000002,-3.6293332426 -1.8786666197000002,-5.9399998515000005 c0,-1.5879999603000001 0.28799999280000005,-3.0533332570000002 0.8613333118000002,-4.395999890100001 c0.5746666523000001,-1.3413332998 1.4079999648000001,-2.3799999405000003 2.4986666042000003,-3.1106665889000005 c1.0919999727,-0.7306666484000001 2.373333274,-1.0973333059000001 3.8466665705000005,-1.0973333059000001 c1.9626666176,0 3.5826665771000004,0.7919999802000002 4.8559998786000005,2.3746666073000005 v-1.99999995 h2.6039999349 v14.3853329737 c0,2.5919999352 -0.2639999934000001,4.4279998893000005 -0.7906666469000001,5.5079998623 c-0.5279999868000002,1.0813333063000001 -1.3639999659,1.9346666183 -2.5079999373000006,2.5626666026000002 c-1.1439999714000002,0.6266666510000001 -2.5519999362,0.9399999765000001 -4.2239998944,0.9399999765000001 c-1.9839999504,0 -3.5879999103000006,-0.4466666555000001 -4.8106665464,-1.3399999665 c-1.2226666361,-0.8933333110000002 -1.8133332880000002,-2.2373332774000003 -1.7706666224,-4.0346665658 " stroke-width="0" fill="#f29b10" fill-opacity="1" stroke="#242424" stroke-opacity="1"/><path inkscape:connector-curvature="0" id="path5155" style="fill-rule: nonzero;" d="m120.1386636632,916.2359990941 v-16.6466662505 h2.519999937 v2.3666666075 c1.2213333028000002,-1.8266666210000002 2.9866665920000006,-2.7413332648 5.293333201,-2.7413332648 c1.0026666416000003,0 1.9253332852,0.1799999955 2.7653332641999997,0.5399999865 c0.8399999790000002,0.36133332430000004 1.4693332966000001,0.8333333125000002 1.8866666195000001,1.4199999644999999 c0.4173333229000001,0.5839999854000001 0.7106666489000001,1.279999968 0.8773333114000003,2.0839999479 c0.10399999740000002,0.5226666536000001 0.15733332940000003,1.4359999641 0.15733332940000003,2.7426665981 v10.234666410800001 h-2.813333263 v-10.1306664134 c0,-1.1493333046000003 -0.10933333060000003,-2.0093332831 -0.32799999180000006,-2.5786666022 c-0.21999999450000005,-0.5693333191000001 -0.6079999848000001,-1.0253333077000002 -1.1666666375,-1.3639999659 c-0.5586666527,-0.3413333248 -1.2146666363,-0.5106666539000001 -1.9653332842,-0.5106666539000001 c-1.1999999700000001,0 -2.2359999441,0.38133332380000007 -3.1079999223,1.1453333047000003 c-0.8706666449000002,0.7626666476000001 -1.306666634,2.2106666114 -1.306666634,4.3426665581 v9.0959997726 z" stroke-width="0" fill="#f29b10" fill-opacity="1" stroke="#242424" stroke-opacity="1"/><path inkscape:connector-curvature="0" id="path5157" style="fill-rule: nonzero;" d="m140.0826631646,906.3186660087 h9.2919997677 c-0.12533333020000004,-1.4026666316 -0.48133332130000006,-2.4559999386 -1.0653333067000001,-3.1573332544 c-0.8986666442000002,-1.0893333061000001 -2.0639999484000002,-1.6333332925000001 -3.4946665793,-1.6333332925000001 c-1.2959999676,0 -2.3839999404000003,0.43466665580000013 -3.2666665850000003,1.3039999674 c-0.8826666446000002,0.8679999783000002 -1.3719999657,2.0306666159000004 -1.4653332967000001,3.4866665795000005 m9.2599997685,4.5426665531 l2.9173332604000004,0.37466665730000004 c-0.4599999885000001,1.7026666241000004 -1.3119999672,3.0239999244 -2.5533332695,3.9639999008999998 c-1.2426666356,0.9399999765000001 -2.8293332626,1.4106666314 -4.7613332143000004,1.4106666314 c-2.4333332725000005,0 -4.362666557600001,-0.7493333146000001 -5.786666522,-2.2493332771000003 c-1.4266666310000002,-1.4986666292000002 -2.1386666132000003,-3.6013332433 -2.1386666132000003,-6.3079998423 c0,-2.7999999300000002 0.719999982,-4.9719998757 2.1613332793,-6.5186665037000004 c1.4413332973,-1.5466666280000003 3.3106665839000002,-2.3199999420000004 5.606666526500001,-2.3199999420000004 c2.2239999444000005,0 4.0413332323,0.7573333144000001 5.4506665304,2.2719999432000004 c1.4093332981,1.5146666288000001 2.1146666138000003,3.6466665755000007 2.1146666138000003,6.391999840200001 c0,0.1679999958 -0.005333333200000002,0.4199999895000001 -0.015999999600000002,0.7533333145000001 h-12.4213330228 c0.10399999740000002,1.8306666209 0.6226666511000001,3.2333332525 1.5533332945,4.2066665615000005 c0.9293333101000003,0.9719999757000002 2.0906666144000003,1.4599999635 3.4813332463000006,1.4599999635 c1.0359999741,0 1.9186666187,-0.27333332650000003 2.6519999337,-0.8213333128000002 c0.7306666484000001,-0.5466666530000001 1.3119999672,-1.4186666312 1.7399999565000004,-2.6159999346000005 " stroke-width="0" fill="#f29b10" fill-opacity="1" stroke="#242424" stroke-opacity="1"/><path inkscape:connector-curvature="0" id="path5159" style="fill-rule: nonzero;" d="m157.6733293915,907.9306659684 c0,2.13333328 0.4493333221000001,3.7266665735 1.3466666330000001,4.783999880400001 c0.8986666442000002,1.0546666403 1.9586666177000003,1.5839999604 3.1799999205000002,1.5839999604 c1.2319999692,0 2.2786666097,-0.5039999874000001 3.1399999215000003,-1.5133332955 c0.8613333118000002,-1.0093333081000002 1.2919999677000003,-2.5479999363 1.2919999677000003,-4.6186665512000005 c0,-2.279999943 -0.43866665570000013,-3.9519999012 -1.3159999671,-5.019999874500001 c-0.8759999781000002,-1.0639999734 -1.9573332844,-1.5986666267000003 -3.2413332523,-1.5986666267000003 c-1.2533333020000001,0 -2.2986666092000005,0.5133333205000001 -3.1399999215000003,1.5359999616000002 c-0.8399999790000002,1.026666641 -1.2613333018000001,2.6413332673 -1.2613333018000001,4.846666545500001 m8.917333110400001,8.3053331257 v-2.0946666143000003 c-1.0546666403,1.6466666255000002 -2.6066666015,2.4693332716 -4.653333217,2.4693332716 c-1.3266666335000001,0 -2.5466666030000003,-0.36533332420000003 -3.6586665752000003,-1.0959999726 c-1.1119999722000002,-0.7319999817000001 -1.973333284,-1.7533332895 -2.5839999354000005,-3.0653332567000002 c-0.6106666514000001,-1.3106666339 -0.9173333104000002,-2.8173332629 -0.9173333104000002,-4.5213332203 c0,-1.6613332918000001 0.2773333264,-3.1679999208 0.8319999792000001,-4.519999887 c0.5533333195000001,-1.3533332995 1.3826666320999998,-2.3906666069000004 2.4906666044000003,-3.1119999222000003 c1.1066666390000002,-0.719999982 2.3439999414,-1.0813333063000001 3.7119999072,-1.0813333063000001 c1.0026666416000003,0 1.8959999526000002,0.21066666140000004 2.679999933,0.6346666508000001 c0.7826666471000001,0.4226666561000001 1.4199999644999999,0.9733333090000001 1.9106666189000001,1.6519999587000003 v-8.2453331272 h2.813333263 v22.9799994255 z" stroke-width="0" fill="#f29b10" fill-opacity="1" stroke="#242424" stroke-opacity="1"/><path inkscape:connector-curvature="0" id="path5161" style="fill-rule: nonzero;" d="m193.1759951706,907.8813326363 c-1.0226666411000003,0.4186666562000001 -2.5573332694000004,0.7733333140000002 -4.601333218300001,1.0653333067000001 c-1.1586666377000001,0.1679999958 -1.9786666172,0.35733332440000004 -2.4586666052000004,0.5653333192000001 c-0.4799999880000001,0.20799999480000003 -0.8493333121000002,0.5146666538000001 -1.1106666389000002,0.9159999771000003 c-0.26133332680000004,0.40266665660000006 -0.3919999902000001,0.8493333121000002 -0.3919999902000001,1.3413332998 c0,0.7533333145000001 0.28399999290000005,1.3786666322 0.8519999787000002,1.8799999530000002 c0.5679999858000001,0.5026666541000001 1.3986666317,0.7533333145000001 2.4919999377000006,0.7533333145000001 c1.0839999729,0 2.0466666155000004,-0.23733332740000004 2.8906665944000003,-0.7133333155000001 c0.8439999789000002,-0.47599998810000005 1.4639999634000003,-1.1253333052 1.8599999535,-1.9506666179000003 c0.30133332580000005,-0.6386666507000001 0.45333332200000015,-1.5786666272 0.45333332200000015,-2.8226665961 zm0.22933332760000003,6.291999842700001 c-1.0479999738,0.8906666444000002 -2.0546666153,1.5213332953 -3.0173332579,1.8866666195000001 c-0.9639999759000002,0.36666665750000005 -1.9986666167000002,0.5506666529 -3.1026665891,0.5506666529 c-1.8226666211,0 -3.2239999194,-0.4466666555000001 -4.2026665616,-1.3399999665 c-0.9786666422000002,-0.8933333110000002 -1.4693332966000001,-2.0346666158 -1.4693332966000001,-3.4226665811000005 c0,-0.8159999796000001 0.18533332870000002,-1.559999961 0.5546666528,-2.2333332775000003 c0.37066665740000004,-0.6746666498 0.8546666453000002,-1.2146666363 1.4533332970000001,-1.6226666261000002 c0.5999999850000001,-0.4079999898000001 1.2733333015000001,-0.7146666488000001 2.0239999494000003,-0.9239999769000002 c0.5519999862,-0.14666666300000003 1.3853332987,-0.28799999280000005 2.4999999375,-0.4239999894000001 c2.2706666099,-0.27066665990000005 3.9426665681,-0.5946666518000001 5.0159998746,-0.9706666424000001 c0.009333333100000002,-0.3866666570000001 0.014666666300000004,-0.6333333175000001 0.014666666300000004,-0.7373333149000001 c0,-1.1506666379000001 -0.26533332670000004,-1.9613332843000002 -0.7973333134000001,-2.4306666059 c-0.7186666487000001,-0.6386666507000001 -1.7879999553000003,-0.9573333094000002 -3.2053332532,-0.9573333094000002 c-1.3226666336000001,0 -2.2999999425000004,0.23333332750000002 -2.9306665934000002,0.6986666492000001 c-0.6319999842,0.4639999884000001 -1.0973333059000001,1.2866666345000002 -1.3999999650000001,2.4679999383 l-2.7493332645999997,-0.37466665730000004 c0.2506666604000001,-1.1813333038000002 0.6626666501000001,-2.1346666133 1.2373333024000002,-2.8613332618 c0.5733333190000001,-0.7253333152000001 1.4026666316,-1.2839999679000003 2.4893332711,-1.6746666248000002 c1.0853333062000001,-0.39333332350000005 2.3439999414,-0.5893333186000002 3.7746665723,-0.5893333186000002 c1.4186666312,0 2.5719999357,0.1666666625 3.4613332468,0.5013333208000001 c0.8866666445000002,0.33466665830000003 1.5386666281999999,0.7559999811000001 1.9559999511000001,1.2613333018000001 c0.4186666562000001,0.5066666540000001 0.7106666489000001,1.1479999713000002 0.8773333114000003,1.919999952 c0.09466666430000001,0.48133332130000006 0.14133332980000002,1.3493332996 0.14133332980000002,2.6013332683000003 v3.7626665726 c0,2.6226666011 0.05999999850000002,4.2813332263 0.18133332880000003,4.9773332089 c0.11999999700000004,0.693333316 0.35733332440000004,1.3586666326999999 0.7146666488000001,1.9973332834000002 h-2.9373332599 c-0.30266665910000007,-0.5893333186000002 -0.4973333209000001,-1.2759999681 -0.5839999854000001,-2.0626666151000004 " stroke-width="0" fill="#f29b10" fill-opacity="1" stroke="#242424" stroke-opacity="1"/><path inkscape:connector-curvature="0" id="path5163" style="fill-rule: nonzero;" d="m200.413328323,916.2359990941 v-16.6466662505 h2.519999937 v2.3666666075 c1.2213333028000002,-1.8266666210000002 2.9866665920000006,-2.7413332648 5.293333201,-2.7413332648 c1.0026666416000003,0 1.9253332852,0.1799999955 2.7653332641999997,0.5399999865 c0.8413333123000002,0.36133332430000004 1.4693332966000001,0.8333333125000002 1.8866666195000001,1.4199999644999999 c0.4173333229000001,0.5839999854000001 0.7106666489000001,1.279999968 0.8773333114000003,2.0839999479 c0.10399999740000002,0.5226666536000001 0.15733332940000003,1.4359999641 0.15733332940000003,2.7426665981 v10.234666410800001 h-2.813333263 v-10.1306664134 c0,-1.1493333046000003 -0.10933333060000003,-2.0093332831 -0.32799999180000006,-2.5786666022 c-0.21999999450000005,-0.5693333191000001 -0.6079999848000001,-1.0253333077000002 -1.1666666375,-1.3639999659 c-0.5586666527,-0.3413333248 -1.2146666363,-0.5106666539000001 -1.9653332842,-0.5106666539000001 c-1.1999999700000001,0 -2.2359999441,0.38133332380000007 -3.1079999223,1.1453333047000003 c-0.8706666449000002,0.7626666476000001 -1.306666634,2.2106666114 -1.306666634,4.3426665581 v9.0959997726 z" stroke-width="0" fill="#f29b10" fill-opacity="1" stroke="#242424" stroke-opacity="1"/><path inkscape:connector-curvature="0" id="path5165" style="fill-rule: nonzero;" d="m220.10799449729998,907.9306659684 c0,2.13333328 0.44799998880000014,3.7266665735 1.3453332996999998,4.783999880400001 c0.8986666442000002,1.0546666403 1.9586666177000003,1.5839999604 3.1799999205000002,1.5839999604 c1.2319999692,0 2.2786666097,-0.5039999874000001 3.1413332548,-1.5133332955 c0.8599999785000002,-1.0093333081000002 1.2906666344000002,-2.5479999363 1.2906666344000002,-4.6186665512000005 c0,-2.279999943 -0.43866665570000013,-3.9519999012 -1.3146666338,-5.019999874500001 c-0.8773333114000003,-1.0639999734 -1.9586666177000003,-1.5986666267000003 -3.2426665856,-1.5986666267000003 c-1.2533333020000001,0 -2.2986666092000005,0.5133333205000001 -3.1399999215000003,1.5359999616000002 c-0.8399999790000002,1.026666641 -1.2599999685,2.6413332673 -1.2599999685,4.846666545500001 m8.915999777100001,8.3053331257 v-2.0946666143000003 c-1.0546666403,1.6466666255000002 -2.6066666015,2.4693332716 -4.653333217,2.4693332716 c-1.3253333002,0 -2.5453332697,-0.36533332420000003 -3.6573332419000004,-1.0959999726 c-1.1119999722000002,-0.7319999817000001 -1.9746666173000003,-1.7533332895 -2.5853332687000004,-3.0653332567000002 c-0.6106666514000001,-1.3106666339 -0.9159999771000003,-2.8173332629 -0.9159999771000003,-4.5213332203 c0,-1.6613332918000001 0.2759999931,-3.1679999208 0.8306666459000002,-4.519999887 c0.5533333195000001,-1.3533332995 1.3826666320999998,-2.3906666069000004 2.4906666044000003,-3.1119999222000003 c1.1066666390000002,-0.719999982 2.3439999414,-1.0813333063000001 3.7133332405000004,-1.0813333063000001 c1.0026666416000003,0 1.8946666193000001,0.21066666140000004 2.6786665997,0.6346666508000001 c0.7826666471000001,0.4226666561000001 1.4199999644999999,0.9733333090000001 1.9106666189000001,1.6519999587000003 v-8.2453331272 h2.813333263 v22.9799994255 z" stroke-width="0" fill="#f29b10" fill-opacity="1" stroke="#242424" stroke-opacity="1"/><path inkscape:connector-curvature="0" id="path5167" style="fill-rule: nonzero;" d="m244.96532720919998,916.2359990941 v-16.6466662505 h2.519999937 v2.5266666035000003 c0.6493333171000001,-1.1813333038000002 1.2493333021000002,-1.9613332843000002 1.7986666217000002,-2.3359999416000004 c0.5506666529,-0.3773333239000001 1.1559999711000002,-0.5653333192000001 1.8159999546000003,-0.5653333192000001 c0.9533333095000002,0 1.9213332853000002,0.3039999924000001 2.9066665940000003,0.9093333106000002 l-0.9866666420000002,2.6093332681000003 c-0.6879999828000001,-0.4013333233000001 -1.3773332989,-0.6013333183 -2.0653332817,-0.6013333183 c-0.6146666513000001,0 -1.1679999708000002,0.18399999540000003 -1.6573332919000001,0.5559999861000001 c-0.49066665440000007,0.37066665740000004 -0.8399999790000002,0.8853333112000003 -1.0493333071000002,1.5439999614 c-0.31333332550000004,1.0026666416000003 -0.4706666549000001,2.0999999475 -0.4706666549000001,3.2906665844000003 v8.713333115500001 z" stroke-width="0" fill="#f29b10" fill-opacity="1" stroke="#242424" stroke-opacity="1"/><path inkscape:connector-curvature="0" id="path5169" style="fill-rule: nonzero;" d="m257.7933268885,906.3186660087 h9.2906664344 c-0.12533333020000004,-1.4026666316 -0.4799999880000001,-2.4559999386 -1.0653333067000001,-3.1573332544 c-0.8986666442000002,-1.0893333061000001 -2.0626666151000004,-1.6333332925000001 -3.493333246,-1.6333332925000001 c-1.2959999676,0 -2.3853332737,0.43466665580000013 -3.2679999183,1.3039999674 c-0.8826666446000002,0.8679999783000002 -1.3706666324,2.0306666159000004 -1.4639999634000003,3.4866665795000005 m9.2599997685,4.5426665531 l2.9159999271,0.37466665730000004 c-0.4599999885000001,1.7026666241000004 -1.3093333006,3.0239999244 -2.5519999362,3.9639999008999998 c-1.2439999689,0.9399999765000001 -2.8306665959000004,1.4106666314 -4.7613332143000004,1.4106666314 c-2.4333332725000005,0 -4.362666557600001,-0.7493333146000001 -5.787999855300001,-2.2493332771000003 c-1.4239999644,-1.4986666292000002 -2.1373332799000004,-3.6013332433 -2.1373332799000004,-6.3079998423 c0,-2.7999999300000002 0.719999982,-4.9719998757 2.1613332793,-6.5186665037000004 c1.4413332973,-1.5466666280000003 3.3093332506000004,-2.3199999420000004 5.6079998598000005,-2.3199999420000004 c2.2226666111000006,0 4.039999899,0.7573333144000001 5.4493331971,2.2719999432000004 c1.4093332981,1.5146666288000001 2.1146666138000003,3.6466665755000007 2.1146666138000003,6.391999840200001 c0,0.1679999958 -0.005333333200000002,0.4199999895000001 -0.015999999600000002,0.7533333145000001 h-12.4213330228 c0.10399999740000002,1.8306666209 0.6213333178,3.2333332525 1.5519999612000002,4.2066665615000005 c0.9319999767000002,0.9719999757000002 2.0919999477,1.4599999635 3.4826665796000005,1.4599999635 c1.0346666408,0 1.9186666187,-0.27333332650000003 2.6506666004,-0.8213333128000002 c0.7319999817000001,-0.5466666530000001 1.3119999672,-1.4186666312 1.7413332898000002,-2.6159999346000005 " stroke-width="0" fill="#f29b10" fill-opacity="1" stroke="#242424" stroke-opacity="1"/><path inkscape:connector-curvature="0" id="path5171" style="fill-rule: nonzero;" d="m273.46665983,893.2559996686 h2.8119999297000002 V916.2346657608 H273.46665983 z" stroke-width="0" fill="#f29b10" fill-opacity="1" stroke="#242424" stroke-opacity="1"/><path inkscape:connector-curvature="0" id="path5173" style="fill-rule: nonzero;" d="m282.759992931,906.3186660087 h9.2919997677 c-0.12533333020000004,-1.4026666316 -0.48133332130000006,-2.4559999386 -1.0653333067000001,-3.1573332544 c-0.8986666442000002,-1.0893333061000001 -2.0626666151000004,-1.6333332925000001 -3.493333246,-1.6333332925000001 c-1.2959999676,0 -2.3853332737,0.43466665580000013 -3.2679999183,1.3039999674 c-0.8826666446000002,0.8679999783000002 -1.3706666324,2.0306666159000004 -1.4653332967000001,3.4866665795000005 m9.2613331018,4.5426665531 l2.9159999271,0.37466665730000004 c-0.4599999885000001,1.7026666241000004 -1.3106666339,3.0239999244 -2.5533332695,3.9639999008999998 c-1.2426666356,0.9399999765000001 -2.8293332626,1.4106666314 -4.7613332143000004,1.4106666314 c-2.4319999392000002,0 -4.3613332243,-0.7493333146000001 -5.787999855300001,-2.2493332771000003 c-1.4239999644,-1.4986666292000002 -2.1373332799000004,-3.6013332433 -2.1373332799000004,-6.3079998423 c0,-2.7999999300000002 0.7213333153000001,-4.9719998757 2.1626666126000003,-6.5186665037000004 c1.439999964,-1.5466666280000003 3.3093332506000004,-2.3199999420000004 5.606666526500001,-2.3199999420000004 c2.2239999444000005,0 4.039999899,0.7573333144000001 5.4506665304,2.2719999432000004 c1.4093332981,1.5146666288000001 2.1133332805,3.6466665755000007 2.1133332805,6.391999840200001 c0,0.1679999958 -0.003999999900000001,0.4199999895000001 -0.014666666300000004,0.7533333145000001 h-12.4226663561 c0.10533333070000002,1.8306666209 0.6226666511000001,3.2333332525 1.5533332945,4.2066665615000005 c0.9306666434000003,0.9719999757000002 2.0906666144000003,1.4599999635 3.4826665796000005,1.4599999635 c1.0346666408,0 1.9186666187,-0.27333332650000003 2.6493332671000003,-0.8213333128000002 c0.7319999817000001,-0.5466666530000001 1.3133333005,-1.4186666312 1.7426666231,-2.6159999346000005 " stroke-width="0" fill="#f29b10" fill-opacity="1" stroke="#242424" stroke-opacity="1"/><path inkscape:connector-curvature="0" id="path5175" style="fill-rule: nonzero;" d="m309.1013256058,907.8813326363 c-1.0226666411000003,0.4186666562000001 -2.5573332694000004,0.7733333140000002 -4.6026665516000005,1.0653333067000001 c-1.1586666377000001,0.1679999958 -1.9773332839000002,0.35733332440000004 -2.4573332719,0.5653333192000001 c-0.48133332130000006,0.20799999480000003 -0.8506666454000001,0.5146666538000001 -1.1119999722000002,0.9159999771000003 c-0.26133332680000004,0.40266665660000006 -0.3906666569000001,0.8493333121000002 -0.3906666569000001,1.3413332998 c0,0.7533333145000001 0.28399999290000005,1.3786666322 0.8506666454000001,1.8799999530000002 c0.5679999858000001,0.5026666541000001 1.3986666317,0.7533333145000001 2.4933332710000005,0.7533333145000001 c1.0826666396000002,0 2.0466666155000004,-0.23733332740000004 2.8906665944000003,-0.7133333155000001 c0.8426666456000002,-0.47599998810000005 1.4626666301,-1.1253333052 1.8586666202000002,-1.9506666179000003 c0.30266665910000007,-0.6386666507000001 0.45333332200000015,-1.5786666272 0.45333332200000015,-2.8226665961 zm0.22933332760000003,6.291999842700001 c-1.0493333071000002,0.8906666444000002 -2.0546666153,1.5213332953 -3.0186665912000006,1.8866666195000001 c-0.9639999759000002,0.36666665750000005 -1.9973332834000002,0.5506666529 -3.1013332558,0.5506666529 c-1.8226666211,0 -3.2239999194,-0.4466666555000001 -4.2039998949,-1.3399999665 c-0.9786666422000002,-0.8933333110000002 -1.4679999633,-2.0346666158 -1.4679999633,-3.4226665811000005 c0,-0.8159999796000001 0.18399999540000003,-1.559999961 0.5546666528,-2.2333332775000003 c0.3693333241,-0.6746666498 0.8533333120000002,-1.2146666363 1.4533332970000001,-1.6226666261000002 c0.5986666517000001,-0.4079999898000001 1.2733333015000001,-0.7146666488000001 2.0226666161,-0.9239999769000002 c0.5519999862,-0.14666666300000003 1.3853332987,-0.28799999280000005 2.4999999375,-0.4239999894000001 c2.2706666099,-0.27066665990000005 3.9426665681,-0.5946666518000001 5.0159998746,-0.9706666424000001 c0.010666666400000004,-0.3866666570000001 0.015999999600000002,-0.6333333175000001 0.015999999600000002,-0.7373333149000001 c0,-1.1506666379000001 -0.26666666,-1.9613332843000002 -0.7973333134000001,-2.4306666059 c-0.719999982,-0.6386666507000001 -1.7879999553000003,-0.9573333094000002 -3.2053332532,-0.9573333094000002 c-1.3239999669,0 -2.3013332758000002,0.23333332750000002 -2.9319999267,0.6986666492000001 c-0.6306666509000001,0.4639999884000001 -1.0973333059000001,1.2866666345000002 -1.3986666317,2.4679999383 l-2.7506665979000005,-0.37466665730000004 c0.2506666604000001,-1.1813333038000002 0.6626666501000001,-2.1346666133 1.2373333024000002,-2.8613332618 c0.5746666523000001,-0.7253333152000001 1.4039999649,-1.2839999679000003 2.4893332711,-1.6746666248000002 c1.0866666395000002,-0.39333332350000005 2.3439999414,-0.5893333186000002 3.7746665723,-0.5893333186000002 c1.4199999644999999,0 2.5733332690000004,0.1666666625 3.4613332468,0.5013333208000001 c0.8866666445000002,0.33466665830000003 1.5399999615000002,0.7559999811000001 1.9573332844,1.2613333018000001 c0.4173333229000001,0.5066666540000001 0.7093333156,1.1479999713000002 0.8773333114000003,1.919999952 c0.09333333100000002,0.48133332130000006 0.13999999650000003,1.3493332996 0.13999999650000003,2.6013332683000003 v3.7626665726 c0,2.6226666011 0.05999999850000002,4.2813332263 0.18133332880000003,4.9773332089 c0.11999999700000004,0.693333316 0.35866665770000006,1.3586666326999999 0.7146666488000001,1.9973332834000002 h-2.9373332599 c-0.30266665910000007,-0.5893333186000002 -0.4973333209000001,-1.2759999681 -0.5826666521000001,-2.0626666151000004 " stroke-width="0" fill="#f29b10" fill-opacity="1" stroke="#242424" stroke-opacity="1"/><path inkscape:connector-curvature="0" id="path5177" style="fill-rule: nonzero;" d="m315.19199212020004,911.2559992186 l2.7906665969,-0.4373333224000001 c0.15733332940000003,1.1226666386000002 0.5946666518000001,1.9853332837000002 1.3106666339,2.5826666021 c0.7173333154000001,0.5973333184000001 1.7186666237000003,0.8973333109000002 3.0053332582000003,0.8973333109000002 c1.2986666342,0 2.2599999435000004,-0.26533332670000004 2.8879999278,-0.7933333135000001 c0.6279999843,-0.5293333201000001 0.9426666431000001,-1.1479999713000002 0.9426666431000001,-1.8613332868000003 c0,-0.6386666507000001 -0.2759999931,-1.1399999715000002 -0.8279999793000001,-1.506666629 c-0.38533332370000006,-0.25199999370000004 -1.3466666330000001,-0.5706666524000001 -2.8839999279000006,-0.9586666427000001 c-2.0719999482,-0.5226666536000001 -3.5079999123000003,-0.9746666423000002 -4.306666559,-1.3546666328 c-0.8013333133000001,-0.38133332380000007 -1.4079999648000001,-0.9079999773000003 -1.8213332878000001,-1.5826666271 c-0.41199998970000007,-0.6733333165000001 -0.6186666512000001,-1.4173332979 -0.6186666512000001,-2.2319999442000005 c0,-0.7426666481 0.1693333291,-1.4279999643 0.5093333206000001,-2.0599999485 c0.33999999150000004,-0.6333333175000001 0.8026666466000002,-1.1573333044000003 1.386666632,-1.5759999606 c0.43866665570000013,-0.32266665860000004 1.0386666407,-0.5973333184000001 1.7959999551,-0.8213333128000002 c0.7573333144000001,-0.22533332770000006 1.5706666274,-0.3373333249 2.4373332724,-0.3373333249 c1.306666634,0 2.453333272,0.18799999530000003 3.4413332473000002,0.5639999859000001 c0.9866666420000002,0.37599999060000006 1.7159999571,0.8853333112000003 2.1866666120000002,1.5266666285000001 c0.4693333216000001,0.6426666506000001 0.7946666468000001,1.4999999625 0.9719999757000002,2.5759999356 l-2.7506665979000005,0.37466665730000004 c-0.12533333020000004,-0.8559999786000002 -0.4879999878000001,-1.5253332952000003 -1.0906666394000002,-2.0066666165 c-0.6013333183,-0.48133332130000006 -1.4506666304000002,-0.7213333153000001 -2.5493332696,-0.7213333153000001 c-1.2973333009,0 -2.2239999444000005,0.21466666130000006 -2.7786665972000004,0.6439999839000001 c-0.5546666528,0.4279999893000001 -0.8306666459000002,0.9306666434000003 -0.8306666459000002,1.506666629 c0,0.36666665750000005 0.11466666380000003,0.6973333159 0.3453333247,0.9893333086000001 c0.22933332760000003,0.3039999924000001 0.5906666519000001,0.5559999861000001 1.0826666396000002,0.7546666478000001 c0.28266665960000004,0.10533333070000002 1.1146666388000002,0.3453333247 2.4946666043000003,0.7213333153000001 c1.9986666167000002,0.5346666533000001 3.3906665819,0.9706666424000001 4.1773332289,1.3093333006 c0.7866666470000001,0.33999999150000004 1.4039999649,0.8333333125000002 1.8519999537,1.4799999630000003 c0.44799998880000014,0.6493333171000001 0.6733333165000001,1.4519999637 0.6733333165000001,2.413333273 c0,0.9399999765000001 -0.27466665980000005,1.8253332877000001 -0.8239999794000001,2.6559999336 c-0.5493333196000001,0.8293333126000002 -1.3413332998,1.4719999632000003 -2.3759999406000003,1.9266666185 c-1.0359999741,0.4546666553000001 -2.2066666115,0.6813333163 -3.5133332455000006,0.6813333163 c-2.1639999459000006,0 -3.8133332380000007,-0.4506666554000001 -4.947999876300001,-1.3506666328999999 c-1.1359999716000002,-0.8986666442000002 -1.8599999535,-2.2333332775000003 -2.1719999457,-4.0039998999 " stroke-width="0" fill="#f29b10" fill-opacity="1" stroke="#242424" stroke-opacity="1"/><path inkscape:connector-curvature="0" id="path5179" style="fill-rule: nonzero;" d="m334.4813249713,906.3186660087 h9.2919997677 c-0.12533333020000004,-1.4026666316 -0.48133332130000006,-2.4559999386 -1.0653333067000001,-3.1573332544 c-0.8986666442000002,-1.0893333061000001 -2.0639999484000002,-1.6333332925000001 -3.4946665793,-1.6333332925000001 c-1.2959999676,0 -2.3839999404000003,0.43466665580000013 -3.2679999183,1.3039999674 c-0.8826666446000002,0.8679999783000002 -1.3706666324,2.0306666159000004 -1.4639999634000003,3.4866665795000005 m9.2599997685,4.5426665531 l2.9173332604000004,0.37466665730000004 c-0.4599999885000001,1.7026666241000004 -1.3119999672,3.0239999244 -2.5533332695,3.9639999008999998 c-1.2426666356,0.9399999765000001 -2.8293332626,1.4106666314 -4.7626665476,1.4106666314 c-2.4319999392000002,0 -4.3613332243,-0.7493333146000001 -5.786666522,-2.2493332771000003 c-1.4253332977,-1.4986666292000002 -2.1373332799000004,-3.6013332433 -2.1373332799000004,-6.3079998423 c0,-2.7999999300000002 0.719999982,-4.9719998757 2.1613332793,-6.5186665037000004 c1.439999964,-1.5466666280000003 3.3093332506000004,-2.3199999420000004 5.606666526500001,-2.3199999420000004 c2.2239999444000005,0 4.0413332323,0.7573333144000001 5.4506665304,2.2719999432000004 c1.4093332981,1.5146666288000001 2.1146666138000003,3.6466665755000007 2.1146666138000003,6.391999840200001 c0,0.1679999958 -0.005333333200000002,0.4199999895000001 -0.015999999600000002,0.7533333145000001 h-12.4213330228 c0.10399999740000002,1.8306666209 0.6226666511000001,3.2333332525 1.5519999612000002,4.2066665615000005 c0.9306666434000003,0.9719999757000002 2.0919999477,1.4599999635 3.4826665796000005,1.4599999635 c1.0359999741,0 1.9186666187,-0.27333332650000003 2.6506666004,-0.8213333128000002 c0.7319999817000001,-0.5466666530000001 1.3119999672,-1.4186666312 1.7413332898000002,-2.6159999346000005 " stroke-width="0" fill="#f29b10" fill-opacity="1" stroke="#242424" stroke-opacity="1"/><path inkscape:connector-curvature="0" id="path5181" style="fill-rule: nonzero;" d="m352.0706578649,907.9306659684 c0,2.13333328 0.4493333221000001,3.7266665735 1.3466666330000001,4.783999880400001 c0.8986666442000002,1.0546666403 1.9586666177000003,1.5839999604 3.1799999205000002,1.5839999604 c1.2319999692,0 2.2786666097,-0.5039999874000001 3.1399999215000003,-1.5133332955 c0.8613333118000002,-1.0093333081000002 1.2919999677000003,-2.5479999363 1.2919999677000003,-4.6186665512000005 c0,-2.279999943 -0.43866665570000013,-3.9519999012 -1.3159999671,-5.019999874500001 c-0.8773333114000003,-1.0639999734 -1.9573332844,-1.5986666267000003 -3.2413332523,-1.5986666267000003 c-1.2533333020000001,0 -2.2999999425000004,0.5133333205000001 -3.1399999215000003,1.5359999616000002 c-0.8399999790000002,1.026666641 -1.2613333018000001,2.6413332673 -1.2613333018000001,4.846666545500001 m8.917333110400001,8.3053331257 v-2.0946666143000003 c-1.0546666403,1.6466666255000002 -2.6053332682000003,2.4693332716 -4.653333217,2.4693332716 c-1.3266666335000001,0 -2.5466666030000003,-0.36533332420000003 -3.6586665752000003,-1.0959999726 c-1.1119999722000002,-0.7319999817000001 -1.973333284,-1.7533332895 -2.5839999354000005,-3.0653332567000002 c-0.6106666514000001,-1.3106666339 -0.9173333104000002,-2.8173332629 -0.9173333104000002,-4.5213332203 c0,-1.6613332918000001 0.2773333264,-3.1679999208 0.8306666459000002,-4.519999887 c0.5533333195000001,-1.3533332995 1.3839999654000001,-2.3906666069000004 2.4919999377000006,-3.1119999222000003 c1.1066666390000002,-0.719999982 2.3426666081,-1.0813333063000001 3.7133332405000004,-1.0813333063000001 c1.0026666416000003,0 1.8959999526000002,0.21066666140000004 2.6786665997,0.6346666508000001 c0.7813333138000002,0.4226666561000001 1.4199999644999999,0.9733333090000001 1.9106666189000001,1.6519999587000003 v-8.2453331272 h2.8119999297000002 v22.9799994255 z" stroke-width="0" fill="#f29b10" fill-opacity="1" stroke="#242424" stroke-opacity="1"/><path inkscape:connector-curvature="0" id="path5183" style="fill-rule: nonzero;" d="m376.9706572424,899.5893328436 h2.8119999297000002 v16.6453329172 h-2.8119999297000002 zm0,-6.333333175 h2.8119999297000002 v3.2506665854000003 h-2.8119999297000002 z" stroke-width="0" fill="#f29b10" fill-opacity="1" stroke="#242424" stroke-opacity="1"/><path inkscape:connector-curvature="0" id="path5185" style="fill-rule: nonzero;" d="m384.0973237309,916.2359990941 v-16.6466662505 h2.519999937 v2.3666666075 c1.2213333028000002,-1.8266666210000002 2.9866665920000006,-2.7413332648 5.2946665343,-2.7413332648 c1.0013333083000002,0 1.9226666186000003,0.1799999955 2.7639999309,0.5399999865 c0.8399999790000002,0.36133332430000004 1.4693332966000001,0.8333333125000002 1.8866666195000001,1.4199999644999999 c0.4186666562000001,0.5839999854000001 0.7106666489000001,1.279999968 0.8786666447000002,2.0839999479 c0.10399999740000002,0.5226666536000001 0.15599999610000004,1.4359999641 0.15599999610000004,2.7426665981 v10.234666410800001 h-2.813333263 v-10.1306664134 c0,-1.1493333046000003 -0.10933333060000003,-2.0093332831 -0.3293333251000001,-2.5786666022 c-0.21866666120000006,-0.5693333191000001 -0.6066666515000001,-1.0253333077000002 -1.1653333042000003,-1.3639999659 c-0.5586666527,-0.3413333248 -1.2133333030000002,-0.5106666539000001 -1.9639999509000001,-0.5106666539000001 c-1.2013333033,0 -2.2373332774000003,0.38133332380000007 -3.1079999223,1.1453333047000003 c-0.8719999782000002,0.7626666476000001 -1.3079999673,2.2106666114 -1.3079999673,4.3426665581 v9.0959997726 z" stroke-width="0" fill="#f29b10" fill-opacity="1" stroke="#242424" stroke-opacity="1"/><path inkscape:connector-curvature="0" id="path5187" style="fill-rule: nonzero;" d="m413.3906563319,908.0093326331 c0,2.1426666131000003 0.43466665580000013,3.7279999068000005 1.2999999675,4.751999881200001 c0.8653333117000002,1.0253333077000002 1.9146666188,1.5373332949 3.1453332547,1.5373332949 c1.2519999687,0 2.3253332752,-0.5319999867000001 3.2173332529000005,-1.5919999602 c0.8906666444000002,-1.0626666401 1.3373332998999998,-2.7053332657 1.3373332998999998,-4.931999876700001 c0,-2.1226666136000003 -0.4359999891000001,-3.7106665739 -1.306666634,-4.767999880800001 c-0.8706666449000002,-1.0546666403 -1.9133332855000003,-1.5839999604 -3.1226665886,-1.5839999604 c-1.1986666367000003,0 -2.2613332768000003,0.5626666526 -3.1839999204,1.6866666245000002 c-0.9239999769000002,1.1239999719000002 -1.386666632,2.7559999311000003 -1.386666632,4.899999877500001 m-2.5413332698000004,14.601332968300001 v-23.0213327578 h2.5626666026000002 v2.1626666126000003 c0.6053333182,-0.8439999789000002 1.2906666344000002,-1.4799999630000003 2.0519999487000002,-1.9026666191000001 c0.7613333143000001,-0.4239999894000001 1.6866666245000002,-0.6346666508000001 2.773333264,-0.6346666508000001 c1.4213332978000002,0 2.6733332665,0.36666665750000005 3.7599999060000004,1.0959999726 c1.0853333062000001,0.7319999817000001 1.9053332857,1.7653332892000002 2.4586666052000004,3.0973332559 c0.5533333195000001,1.3319999667 0.8306666459000002,2.7906665969 0.8306666459000002,4.379999890500001 c0,1.7026666241000004 -0.30533332570000005,3.2359999191 -0.9159999771000003,4.5986665517 c-0.6106666514000001,1.3639999659 -1.4986666292000002,2.4093332731 -2.6626666001,3.1359999216 c-1.1653333042000003,0.7253333152000001 -2.3906666069000004,1.0879999728 -3.6746665748000003,1.0879999728 c-0.9399999765000001,0 -1.7839999554000001,-0.19733332840000004 -2.5306666034000003,-0.5933333185000002 c-0.7466666480000002,-0.3959999901000001 -1.3599999660000002,-0.8959999776000003 -1.8399999540000003,-1.4999999625 v8.093333131000001 z" stroke-width="0" fill="#f29b10" fill-opacity="1" stroke="#242424" stroke-opacity="1"/><path inkscape:connector-curvature="0" id="path5189" style="fill-rule: nonzero;" d="m439.5653223442,916.2359990941 v-2.4546666053000004 c-1.2906666344000002,1.8866666195000001 -3.0466665905,2.8293332626 -5.2653332017,2.8293332626 c-0.9786666422000002,0 -1.893333286,-0.18799999530000003 -2.7426665981,-0.5639999859000001 c-0.8479999788000002,-0.37599999060000006 -1.4786666297,-0.8493333121000002 -1.8906666194000004,-1.4186666312 c-0.4106666564000001,-0.5693333191000001 -0.6999999825000001,-1.2666666350000002 -0.8666666450000002,-2.093333281 c-0.11466666380000003,-0.5533333195000001 -0.17199999570000002,-1.4306666309 -0.17199999570000002,-2.6319999342 v-10.313333075500001 h2.813333263 v9.226666436 c0,1.4733332965000001 0.05733333190000001,2.4639999384 0.1706666624,2.9773332589000003 c0.1773333289,0.7399999815000001 0.5533333195000001,1.3226666336000001 1.1266666385000002,1.7453332897000002 c0.5733333190000001,0.4239999894000001 1.2813333013000001,0.6346666508000001 2.1266666135000003,0.6346666508000001 c0.8439999789000002,0 1.6359999591000003,-0.21599999460000005 2.3759999406000003,-0.6493333171000001 c0.7399999815000001,-0.43466665580000013 1.2626666351000002,-1.0239999744000001 1.5719999607000001,-1.7706666224 c0.306666659,-0.7466666480000002 0.46133332180000014,-1.8306666209 0.46133332180000014,-3.2506665854000003 v-8.913333110500002 h2.8106665964000004 v16.6466662505 z" stroke-width="0" fill="#f29b10" fill-opacity="1" stroke="#242424" stroke-opacity="1"/><path inkscape:connector-curvature="0" id="path5191" style="fill-rule: nonzero;" d="m449.07198877319996,907.7879993053 c0,1.9973332834000002 0.2719999932,3.4399999140000004 0.8159999796000001,4.3293332251 c0.8893333111000002,1.4546666303 2.0919999477,2.1813332788000004 3.6106665764000003,2.1813332788000004 c1.2346666358,0 2.3026666091,-0.5373333199000001 3.2013332533,-1.6079999598 c0.8999999775000003,-1.0719999732 1.3506666328999999,-2.6693332666 1.3506666328999999,-4.7933332135 c0,-2.1759999456 -0.4319999892000001,-3.7813332388000007 -1.2959999676,-4.8159998796000005 c-0.8626666451000002,-1.0359999741 -1.9066666190000003,-1.5533332945 -3.1306665884,-1.5533332945 c-1.2346666358,0 -2.3026666091,0.5359999866 -3.2026665866000004,1.6079999598 c-0.8986666442000002,1.0706666399000002 -1.3493332996,2.6213332678000003 -1.3493332996,4.6519998837 m0.04133333230000001,8.4479997888 h-2.6039999349 v-22.9799994255 h2.8119999297000002 v8.193333128499999 c1.1933333035000002,-1.4893332961 2.7133332655,-2.2346666108 4.5653332192,-2.2346666108 c1.0253333077000002,0 1.9946666168,0.20533332820000005 2.9106665939,0.6199999845 c0.9146666438000003,0.41199998970000007 1.6679999583,0.9919999752000002 2.2586666102,1.7399999565000004 c0.5906666519000001,0.7453333147000001 1.0546666403,1.6466666255000002 1.3879999653,2.7026665991000005 c0.3359999916,1.0546666403 0.5026666541000001,2.1839999454 0.5026666541000001,3.3853332487000003 c0,2.8519999287000006 -0.7053333157,5.0559998736 -2.1186666137,6.6133331680000005 c-1.4119999646999999,1.5559999611000002 -3.1079999223,2.3346666083 -5.083999872900001,2.3346666083 c-1.9679999508000001,0 -3.5106665789,-0.8173333129000002 -4.6306665509,-2.453333272 z" stroke-width="0" fill="#f29b10" fill-opacity="1" stroke="#242424" stroke-opacity="1"/><path inkscape:connector-curvature="0" id="path5193" style="fill-rule: nonzero;" d="m464.3079883923,893.2559996686 h2.8119999297000002 v22.978666092200005 h-2.8119999297000002 z" stroke-width="0" fill="#f29b10" fill-opacity="1" stroke="#242424" stroke-opacity="1"/><path inkscape:connector-curvature="0" id="path5195" style="fill-rule: nonzero;" d="m471.4973215459,899.5893328436 h2.8119999297000002 v16.6453329172 h-2.8119999297000002 zm0,-6.333333175 h2.8119999297000002 v3.2506665854000003 h-2.8119999297000002 z" stroke-width="0" fill="#f29b10" fill-opacity="1" stroke="#242424" stroke-opacity="1"/><path inkscape:connector-curvature="0" id="path5197" style="fill-rule: nonzero;" d="m489.4786544297,910.1319992467 l2.7719999307000003,0.37466665730000004 c-0.3039999924000001,1.9093332856 -1.079999973,3.4039999149 -2.3293332751,4.4839998879000005 c-1.2479999688,1.0813333063000001 -2.7826665971000004,1.6199999595 -4.599999885000001,1.6199999595 c-2.2786666097,0 -4.1093332306,-0.7453333147000001 -5.494666529300001,-2.2333332775000003 c-1.3853332987,-1.4879999628000002 -2.0759999481,-3.6226665761000003 -2.0759999481,-6.4026665066 c0,-1.7959999551 0.29733332590000006,-3.3693332491000003 0.8919999777000003,-4.7159998821 c0.5959999851000001,-1.3479999663 1.5013332957999999,-2.3586666077000005 2.7186665987000005,-3.0333332575 c1.2186666362,-0.6733333165000001 2.5426666031000003,-1.0106666414000003 3.973333234,-1.0106666414000003 c1.8066666215,0 3.2866665845,0.4586666552000001 4.434666555800001,1.3719999657 c1.1479999713000002,0.9159999771000003 1.8853332862000003,2.2159999446000005 2.2093332781,3.8986665692 l-2.7493332645999997,0.4173333229000001 c-0.26133332680000004,-1.1199999720000002 -0.7226666486000001,-1.9626666176 -1.386666632,-2.5279999368 c-0.6626666501000001,-0.5653333192000001 -1.4639999634000003,-0.8466666455000001 -2.4039999399,-0.8466666455000001 c-1.4199999644999999,0 -2.5746666023,0.5093333206000001 -3.4613332468,1.5293332951 c-0.8879999778000003,1.0199999745000001 -1.3319999667,2.6333332675000003 -1.3319999667,4.839999879 c0,2.2386666107000006 0.4293333226000001,3.8639999034000003 1.2866666345000002,4.878666544700001 c0.8586666452000002,1.0146666413000003 1.9773332839000002,1.5226666286 3.3586665827,1.5226666286 c1.1079999723000002,0 2.0333332825,-0.3413333248 2.7759999306,-1.0226666411000003 c0.7426666481,-0.6813333163 1.2133333030000002,-1.7293332901000003 1.4119999646999999,-3.1439999214000003 " stroke-width="0" fill="#f29b10" fill-opacity="1" stroke="#242424" stroke-opacity="1"/><path inkscape:connector-curvature="0" id="path5199" style="fill-rule: nonzero;" d="m505.4306540309,907.9306659684 c0,2.13333328 0.4493333221000001,3.7266665735 1.3466666330000001,4.783999880400001 c0.8986666442000002,1.0546666403 1.9586666177000003,1.5839999604 3.1799999205000002,1.5839999604 c1.2319999692,0 2.2786666097,-0.5039999874000001 3.1399999215000003,-1.5133332955 c0.8613333118000002,-1.0093333081000002 1.2919999677000003,-2.5479999363 1.2919999677000003,-4.6186665512000005 c0,-2.279999943 -0.43866665570000013,-3.9519999012 -1.3146666338,-5.019999874500001 c-0.8786666447000002,-1.0639999734 -1.9586666177000003,-1.5986666267000003 -3.2426665856,-1.5986666267000003 c-1.2519999687,0 -2.2999999425000004,0.5133333205000001 -3.1399999215000003,1.5359999616000002 c-0.8399999790000002,1.026666641 -1.2613333018000001,2.6413332673 -1.2613333018000001,4.846666545500001 m8.917333110400001,8.3053331257 v-2.0946666143000003 c-1.0546666403,1.6466666255000002 -2.6066666015,2.4693332716 -4.653333217,2.4693332716 c-1.3266666335000001,0 -2.5466666030000003,-0.36533332420000003 -3.6586665752000003,-1.0959999726 c-1.1119999722000002,-0.7319999817000001 -1.973333284,-1.7533332895 -2.5839999354000005,-3.0653332567000002 c-0.6119999847,-1.3106666339 -0.9173333104000002,-2.8173332629 -0.9173333104000002,-4.5213332203 c0,-1.6613332918000001 0.2759999931,-3.1679999208 0.8306666459000002,-4.519999887 c0.5533333195000001,-1.3533332995 1.3839999654000001,-2.3906666069000004 2.4919999377000006,-3.1119999222000003 c1.1066666390000002,-0.719999982 2.3439999414,-1.0813333063000001 3.7119999072,-1.0813333063000001 c1.0026666416000003,0 1.8959999526000002,0.21066666140000004 2.679999933,0.6346666508000001 c0.7826666471000001,0.4226666561000001 1.4199999644999999,0.9733333090000001 1.9106666189000001,1.6519999587000003 v-8.2453331272 h2.8119999297000002 v22.9799994255 z" stroke-width="0" fill="#f29b10" fill-opacity="1" stroke="#242424" stroke-opacity="1"/><path inkscape:connector-curvature="0" id="path5201" style="fill-rule: nonzero;" d="m523.2506535854,907.9159993021 c0,2.1319999467 0.4639999884000001,3.7279999068000005 1.3933332985,4.7906665469 c0.9306666434000003,1.0599999735 2.0999999475,1.5919999602 3.5093332456,1.5919999602 c1.3999999650000001,0 2.5639999359,-0.5346666533000001 3.493333246,-1.59999996 c0.9306666434000003,-1.06666664 1.3946666318,-2.6919999327000004 1.3946666318,-4.877333211400001 c0,-2.0599999485 -0.46666665500000004,-3.6199999095 -1.4026666316,-4.6826665496 c-0.9346666433000002,-1.0586666402 -2.0959999476,-1.5906666269 -3.4853332462,-1.5906666269 c-1.4093332981,0 -2.5786666022,0.5293333201000001 -3.5093332456,1.5839999604 c-0.9293333101000003,1.0573333069000002 -1.3933332985,2.6506666004 -1.3933332985,4.783999880400001 m-2.8959999276,-0.002666666600000001 c0,-3.0826665896000005 0.8546666453000002,-5.3653331992 2.5679999358000005,-6.849333162100001 c1.4306666309,-1.2319999692 3.173333254,-1.8493332871000001 5.2306665359,-1.8493332871000001 c2.2866666095,0 4.1546665628,0.7506666479000002 5.606666526500001,2.2493332771000003 c1.4519999637,1.4999999625 2.1773332789,3.5706665774 2.1773332789,6.214666511300001 c0,2.1399999465 -0.32133332530000003,3.8253332377000007 -0.9639999759000002,5.0533332070000005 c-0.6413333173000001,1.2279999693 -1.5759999606,2.1813332788000004 -2.8026665966,2.8599999285 c-1.226666636,0.6786666497 -2.5653332692,1.0186666412000003 -4.0173332329,1.0186666412000003 c-2.3279999418,0 -4.2106665614,-0.7479999813000001 -5.6453331922,-2.2413332773000003 c-1.4359999641,-1.4933332960000003 -2.1533332795000004,-3.6466665755000007 -2.1533332795000004,-6.455999838600001 " stroke-width="0" fill="#f29b10" fill-opacity="1" stroke="#242424" stroke-opacity="1"/><path inkscape:connector-curvature="0" id="path5203" style="fill-rule: nonzero;" d="m539.2479865188,916.2359990941 v-16.6466662505 h2.519999937 v2.3293332751 c0.5226666536000001,-0.8119999797000002 1.2146666363,-1.4666666300000002 2.0813332813,-1.9613332843000002 c0.8653333117000002,-0.49466665430000006 1.8493332871000001,-0.7426666481 2.9559999261,-0.7426666481 c1.2293333026000002,0 2.2386666107000006,0.25599999360000003 3.026666591,0.7653333142000002 c0.7866666470000001,0.5119999872000001 1.3426666331,1.2253333027000002 1.6653332917,2.1426666131000003 c1.3173333004,-1.9386666182 3.0333332575,-2.9079999273 5.1453332047,-2.9079999273 c1.6533332920000001,0 2.9239999269,0.45733332190000014 3.8133332380000007,1.3706666324 c0.8893333111000002,0.9159999771000003 1.3333333,2.3239999419000004 1.3333333,4.2239998944 v11.426666381 h-2.813333263 v-10.4906664044 c0,-1.1293333051 -0.09066666440000003,-1.9413332848 -0.27466665980000005,-2.4399999390000002 c-0.18133332880000003,-0.4959999876000001 -0.5133333205000001,-0.8946666443000002 -0.9946666418000002,-1.1986666367000003 c-0.48133332130000006,-0.30266665910000007 -1.0466666405,-0.4546666553000001 -1.693333291,-0.4546666553000001 c-1.1719999707000002,0 -2.1453332797,0.38933332360000006 -2.9186665937000003,1.1679999708000002 c-0.7733333140000002,0.7799999805000001 -1.1599999710000002,2.026666616 -1.1599999710000002,3.7413332398000003 v9.6746664248 h-2.8119999297000002 v-10.819999729500001 c0,-1.2546666353000002 -0.22933332760000003,-2.1959999451000005 -0.6893333161,-2.8226665961 c-0.4599999885000001,-0.6266666510000001 -1.2106666364,-0.9413333098000002 -2.2546666103000006,-0.9413333098000002 c-0.7933333135000001,0 -1.5266666285000001,0.20933332810000005 -2.2013332783000004,0.6279999843 c-0.6719999832,0.4173333229000001 -1.1613333043000003,1.0293333076 -1.4626666301,1.8346666208000002 c-0.30266665910000007,0.8039999799000002 -0.4546666553000001,1.9653332842 -0.4546666553000001,3.4799999130000008 v8.6413331173 z" stroke-width="0" fill="#f29b10" fill-opacity="1" stroke="#242424" stroke-opacity="1"/><path inkscape:connector-curvature="0" id="path5205" style="fill-rule: nonzero;" d="m576.5839855854,907.8813326363 c-1.0226666411000003,0.4186666562000001 -2.5573332694000004,0.7733333140000002 -4.6039998849,1.0653333067000001 c-1.1573333044000003,0.1679999958 -1.9759999506,0.35733332440000004 -2.4559999386,0.5653333192000001 c-0.48133332130000006,0.20799999480000003 -0.8506666454000001,0.5146666538000001 -1.1106666389000002,0.9159999771000003 c-0.26266666010000006,0.40266665660000006 -0.3919999902000001,0.8493333121000002 -0.3919999902000001,1.3413332998 c0,0.7533333145000001 0.28399999290000005,1.3786666322 0.8506666454000001,1.8799999530000002 c0.5679999858000001,0.5026666541000001 1.3986666317,0.7533333145000001 2.4919999377000006,0.7533333145000001 c1.0839999729,0 2.0479999488000002,-0.23733332740000004 2.8906665944000003,-0.7133333155000001 c0.8439999789000002,-0.47599998810000005 1.4639999634000003,-1.1253333052 1.8599999535,-1.9506666179000003 c0.30266665910000007,-0.6386666507000001 0.45333332200000015,-1.5786666272 0.45333332200000015,-2.8226665961 zm0.22799999430000004,6.291999842700001 c-1.0479999738,0.8906666444000002 -2.0546666153,1.5213332953 -3.0173332579,1.8866666195000001 c-0.9639999759000002,0.36666665750000005 -1.9973332834000002,0.5506666529 -3.1013332558,0.5506666529 c-1.8239999544000003,0 -3.2239999194,-0.4466666555000001 -4.2039998949,-1.3399999665 c-0.9786666422000002,-0.8933333110000002 -1.4679999633,-2.0346666158 -1.4679999633,-3.4226665811000005 c0,-0.8159999796000001 0.18399999540000003,-1.559999961 0.5546666528,-2.2333332775000003 c0.3693333241,-0.6746666498 0.8533333120000002,-1.2146666363 1.4519999637,-1.6226666261000002 c0.5999999850000001,-0.4079999898000001 1.2746666348000002,-0.7146666488000001 2.0239999494000003,-0.9239999769000002 c0.5519999862,-0.14666666300000003 1.3853332987,-0.28799999280000005 2.4999999375,-0.4239999894000001 c2.2706666099,-0.27066665990000005 3.9426665681,-0.5946666518000001 5.0159998746,-0.9706666424000001 c0.010666666400000004,-0.3866666570000001 0.015999999600000002,-0.6333333175000001 0.015999999600000002,-0.7373333149000001 c0,-1.1506666379000001 -0.26666666,-1.9613332843000002 -0.7986666467000002,-2.4306666059 c-0.7186666487000001,-0.6386666507000001 -1.7866666220000003,-0.9573333094000002 -3.2039999199,-0.9573333094000002 c-1.3253333002,0 -2.3013332758000002,0.23333332750000002 -2.9319999267,0.6986666492000001 c-0.6306666509000001,0.4639999884000001 -1.0973333059000001,1.2866666345000002 -1.3986666317,2.4679999383 l-2.7506665979000005,-0.37466665730000004 c0.2506666604000001,-1.1813333038000002 0.6626666501000001,-2.1346666133 1.2373333024000002,-2.8613332618 c0.5733333190000001,-0.7253333152000001 1.4026666316,-1.2839999679000003 2.4893332711,-1.6746666248000002 c1.0853333062000001,-0.39333332350000005 2.3453332747,-0.5893333186000002 3.7746665723,-0.5893333186000002 c1.4186666312,0 2.5733332690000004,0.1666666625 3.4613332468,0.5013333208000001 c0.8866666445000002,0.33466665830000003 1.5386666281999999,0.7559999811000001 1.9559999511000001,1.2613333018000001 c0.4186666562000001,0.5066666540000001 0.7106666489000001,1.1479999713000002 0.8786666447000002,1.919999952 c0.09333333100000002,0.48133332130000006 0.13999999650000003,1.3493332996 0.13999999650000003,2.6013332683000003 v3.7626665726 c0,2.6226666011 0.05999999850000002,4.2813332263 0.18133332880000003,4.9773332089 c0.11999999700000004,0.693333316 0.35733332440000004,1.3586666326999999 0.7146666488000001,1.9973332834000002 h-2.9373332599 c-0.3039999924000001,-0.5893333186000002 -0.4973333209000001,-1.2759999681 -0.5839999854000001,-2.0626666151000004 " stroke-width="0" fill="#f29b10" fill-opacity="1" stroke="#242424" stroke-opacity="1"/><path inkscape:connector-curvature="0" id="path5207" style="fill-rule: nonzero;" d="m583.8199854045,899.5893328436 h2.8119999297000002 v16.6453329172 h-2.8119999297000002 zm0,-6.333333175 h2.8119999297000002 v3.2506665854000003 h-2.8119999297000002 z" stroke-width="0" fill="#f29b10" fill-opacity="1" stroke="#242424" stroke-opacity="1"/><path inkscape:connector-curvature="0" id="path5209" style="fill-rule: nonzero;" d="m590.946651893,916.2359990941 v-16.6466662505 h2.5213332703 v2.3666666075 c1.2213333028000002,-1.8266666210000002 2.9853332587,-2.7413332648 5.293333201,-2.7413332648 c1.0026666416000003,0 1.9239999519000002,0.1799999955 2.7653332641999997,0.5399999865 c0.8386666457000002,0.36133332430000004 1.4679999633,0.8333333125000002 1.8866666195000001,1.4199999644999999 c0.4173333229000001,0.5839999854000001 0.7093333156,1.279999968 0.8773333114000003,2.0839999479 c0.10399999740000002,0.5226666536000001 0.15599999610000004,1.4359999641 0.15599999610000004,2.7426665981 v10.234666410800001 h-2.8119999297000002 v-10.1306664134 c0,-1.1493333046000003 -0.10933333060000003,-2.0093332831 -0.3293333251000001,-2.5786666022 c-0.21999999450000005,-0.5693333191000001 -0.6093333181,-1.0253333077000002 -1.1666666375,-1.3639999659 c-0.5573333194000001,-0.3413333248 -1.2133333030000002,-0.5106666539000001 -1.9639999509000001,-0.5106666539000001 c-1.2013333033,0 -2.2373332774000003,0.38133332380000007 -3.1079999223,1.1453333047000003 c-0.8719999782000002,0.7626666476000001 -1.3079999673,2.2106666114 -1.3079999673,4.3426665581 v9.0959997726 z" stroke-width="0" fill="#f29b10" fill-opacity="1" stroke="#242424" stroke-opacity="1"/><path inkscape:connector-curvature="0" id="path5211" style="fill-rule: nonzero;" d="m620.2413178273,907.7879993053 c0,1.9973332834000002 0.2719999932,3.4399999140000004 0.8159999796000001,4.3293332251 c0.8893333111000002,1.4546666303 2.0919999477,2.1813332788000004 3.6106665764000003,2.1813332788000004 c1.2346666358,0 2.3026666091,-0.5373333199000001 3.2013332533,-1.6079999598 c0.8999999775000003,-1.0719999732 1.3506666328999999,-2.6693332666 1.3506666328999999,-4.7933332135 c0,-2.1759999456 -0.4319999892000001,-3.7813332388000007 -1.2959999676,-4.8159998796000005 c-0.8626666451000002,-1.0359999741 -1.9066666190000003,-1.5533332945 -3.1306665884,-1.5533332945 c-1.2346666358,0 -2.3026666091,0.5359999866 -3.2026665866000004,1.6079999598 c-0.8986666442000002,1.0706666399000002 -1.3493332996,2.6213332678000003 -1.3493332996,4.6519998837 m0.04133333230000001,8.4479997888 h-2.6039999349 v-22.9799994255 h2.8119999297000002 v8.193333128499999 c1.1933333035000002,-1.4893332961 2.7133332655,-2.2346666108 4.5653332192,-2.2346666108 c1.0253333077000002,0 1.9946666168,0.20533332820000005 2.9106665939,0.6199999845 c0.9146666438000003,0.41199998970000007 1.6679999583,0.9919999752000002 2.2586666102,1.7399999565000004 c0.5906666519000001,0.7453333147000001 1.0546666403,1.6466666255000002 1.3879999653,2.7026665991000005 c0.3359999916,1.0546666403 0.5026666541000001,2.1839999454 0.5026666541000001,3.3853332487000003 c0,2.8519999287000006 -0.7053333157,5.0559998736 -2.1186666137,6.6133331680000005 c-1.4133332980000002,1.5559999611000002 -3.1079999223,2.3346666083 -5.083999872900001,2.3346666083 c-1.9679999508000001,0 -3.5106665789,-0.8173333129000002 -4.6306665509,-2.453333272 z" stroke-width="0" fill="#f29b10" fill-opacity="1" stroke="#242424" stroke-opacity="1"/><path inkscape:connector-curvature="0" id="path5213" style="fill-rule: nonzero;" d="m635.4159841146001,922.6386656007 l-0.31333332550000004,-2.6533332670000003 c0.6146666513000001,0.1666666625 1.1519999712000002,0.2506666604000001 1.6106666264,0.2506666604000001 c0.6266666510000001,0 1.1266666385000002,-0.10399999740000002 1.5013332957999999,-0.31333332550000004 c0.37466665730000004,-0.20933332810000005 0.6839999829000001,-0.5026666541000001 0.9239999769000002,-0.8773333114000003 c0.17599999560000001,-0.28266665960000004 0.46266665510000016,-0.9813333088000001 0.8599999785000002,-2.0986666142000003 c0.05199999870000001,-0.15733332940000003 0.1359999966,-0.3866666570000001 0.2506666604000001,-0.6906666494 l-6.333333175,-16.666666250000002 h3.0399999240000004 l3.4693332466000006,9.597333093400001 c0.4506666554000001,1.2159999696000001 0.8533333120000002,2.4959999376 1.2106666364,3.8386665707 c0.3253333252,-1.2546666353000002 0.7133333155000001,-2.4973332709000005 1.1639999709000002,-3.7293332401000003 l3.5533332445,-9.706666424000002 h2.8186665962 l-6.310666508900001,16.9386662432 c-0.6799999830000001,1.8253332877000001 -1.2079999698000001,3.0799999230000004 -1.5839999604,3.7693332391000003 c-0.5013333208000001,0.9266666435000003 -1.0759999731,1.6066666265000003 -1.7239999569000002,2.0399999490000003 c-0.6479999838000001,0.4319999892000001 -1.4213332978000002,0.6479999838000001 -2.3199999420000004,0.6479999838000001 c-0.5426666531000001,0 -1.1493333046000003,-0.11466666380000003 -1.8173332879000001,-0.346666658 " stroke-width="0" fill="#f29b10" fill-opacity="1" stroke="#242424" stroke-opacity="1"/><path inkscape:connector-curvature="0" id="path5215" style="fill-rule: nonzero;" d="m660.9919834752001,916.2359990941 v-22.9799994255 h15.4999996125 v2.7093332656 h-12.4586663552 v7.1239998219 h10.791999730199999 v2.7093332656 h-10.791999730199999 v10.437333072400001 z" stroke-width="0" fill="#f29b10" fill-opacity="1" stroke="#242424" stroke-opacity="1"/><path inkscape:connector-curvature="0" id="path5217" style="fill-rule: nonzero;" d="m680.0453163322001,916.2359990941 v-16.6466662505 h2.5213332703 v2.5266666035000003 c0.6493333171000001,-1.1813333038000002 1.2479999688,-1.9613332843000002 1.7986666217000002,-2.3359999416000004 c0.5506666529,-0.3773333239000001 1.1546666378000001,-0.5653333192000001 1.8159999546000003,-0.5653333192000001 c0.9533333095000002,0 1.9213332853000002,0.3039999924000001 2.9053332607,0.9093333106000002 l-0.9866666420000002,2.6093332681000003 c-0.6866666495,-0.4013333233000001 -1.3759999656000002,-0.6013333183 -2.0653332817,-0.6013333183 c-0.6146666513000001,0 -1.1666666375,0.18399999540000003 -1.6573332919000001,0.5559999861000001 c-0.4893333211000001,0.37066665740000004 -0.8399999790000002,0.8853333112000003 -1.0479999738,1.5439999614 c-0.31466665880000005,1.0026666416000003 -0.4706666549000001,2.0999999475 -0.4706666549000001,3.2906665844000003 v8.713333115500001 z" stroke-width="0" fill="#f29b10" fill-opacity="1" stroke="#242424" stroke-opacity="1"/><path inkscape:connector-curvature="0" id="path5219" style="fill-rule: nonzero;" d="m692.8733160115,906.3186660087 h9.2919997677 c-0.12533333020000004,-1.4026666316 -0.4799999880000001,-2.4559999386 -1.0653333067000001,-3.1573332544 c-0.8986666442000002,-1.0893333061000001 -2.0639999484000002,-1.6333332925000001 -3.4946665793,-1.6333332925000001 c-1.2959999676,0 -2.3839999404000003,0.43466665580000013 -3.2666665850000003,1.3039999674 c-0.8826666446000002,0.8679999783000002 -1.3706666324,2.0306666159000004 -1.4653332967000001,3.4866665795000005 m9.2613331018,4.5426665531 l2.9159999271,0.37466665730000004 c-0.4599999885000001,1.7026666241000004 -1.3106666339,3.0239999244 -2.5533332695,3.9639999008999998 c-1.2426666356,0.9399999765000001 -2.8293332626,1.4106666314 -4.7613332143000004,1.4106666314 c-2.4319999392000002,0 -4.362666557600001,-0.7493333146000001 -5.786666522,-2.2493332771000003 c-1.4253332977,-1.4986666292000002 -2.1386666132000003,-3.6013332433 -2.1386666132000003,-6.3079998423 c0,-2.7999999300000002 0.719999982,-4.9719998757 2.1613332793,-6.5186665037000004 c1.4413332973,-1.5466666280000003 3.3106665839000002,-2.3199999420000004 5.6079998598000005,-2.3199999420000004 c2.2239999444000005,0 4.0413332323,0.7573333144000001 5.4493331971,2.2719999432000004 c1.4093332981,1.5146666288000001 2.1146666138000003,3.6466665755000007 2.1146666138000003,6.391999840200001 c0,0.1679999958 -0.005333333200000002,0.4199999895000001 -0.014666666300000004,0.7533333145000001 h-12.4226663561 c0.10399999740000002,1.8306666209 0.6226666511000001,3.2333332525 1.5519999612000002,4.2066665615000005 c0.9319999767000002,0.9719999757000002 2.093333281,1.4599999635 3.4839999129000003,1.4599999635 c1.0346666408,0 1.9173332854000003,-0.27333332650000003 2.6506666004,-0.8213333128000002 c0.7319999817000001,-0.5466666530000001 1.3106666339,-1.4186666312 1.7413332898000002,-2.6159999346000005 " stroke-width="0" fill="#f29b10" fill-opacity="1" stroke="#242424" stroke-opacity="1"/><path inkscape:connector-curvature="0" id="path5221" style="fill-rule: nonzero;" d="m710.7133155655,906.3186660087 h9.2919997677 c-0.12666666350000005,-1.4026666316 -0.4799999880000001,-2.4559999386 -1.0653333067000001,-3.1573332544 c-0.8986666442000002,-1.0893333061000001 -2.0639999484000002,-1.6333332925000001 -3.4946665793,-1.6333332925000001 c-1.2959999676,0 -2.3839999404000003,0.43466665580000013 -3.2666665850000003,1.3039999674 c-0.8826666446000002,0.8679999783000002 -1.3719999657,2.0306666159000004 -1.4653332967000001,3.4866665795000005 m9.2599997685,4.5426665531 l2.9173332604000004,0.37466665730000004 c-0.4599999885000001,1.7026666241000004 -1.3106666339,3.0239999244 -2.5533332695,3.9639999008999998 c-1.2426666356,0.9399999765000001 -2.8293332626,1.4106666314 -4.759999881000001,1.4106666314 c-2.4346666058000004,0 -4.363999890900001,-0.7493333146000001 -5.787999855300001,-2.2493332771000003 c-1.4266666310000002,-1.4986666292000002 -2.1386666132000003,-3.6013332433 -2.1386666132000003,-6.3079998423 c0,-2.7999999300000002 0.719999982,-4.9719998757 2.1613332793,-6.5186665037000004 c1.4413332973,-1.5466666280000003 3.3106665839000002,-2.3199999420000004 5.606666526500001,-2.3199999420000004 c2.2239999444000005,0 4.0413332323,0.7573333144000001 5.4506665304,2.2719999432000004 c1.4106666314,1.5146666288000001 2.1146666138000003,3.6466665755000007 2.1146666138000003,6.391999840200001 c0,0.1679999958 -0.005333333200000002,0.4199999895000001 -0.014666666300000004,0.7533333145000001 h-12.4226663561 c0.10399999740000002,1.8306666209 0.6226666511000001,3.2333332525 1.5533332945,4.2066665615000005 c0.9293333101000003,0.9719999757000002 2.0919999477,1.4599999635 3.4826665796000005,1.4599999635 c1.0346666408,0 1.9186666187,-0.27333332650000003 2.6506666004,-0.8213333128000002 c0.7319999817000001,-0.5466666530000001 1.3119999672,-1.4186666312 1.7399999565000004,-2.6159999346000005 " stroke-width="0" fill="#f29b10" fill-opacity="1" stroke="#242424" stroke-opacity="1"/><path inkscape:connector-curvature="0" id="path5223" style="fill-rule: nonzero;" d="m725.7839818553999,908.8613326118 l2.8746665948000003,-0.2506666604000001 c0.1359999966,1.1519999712000002 0.4506666554000001,2.0986666142000003 0.9453333097000002,2.8373332624 c0.49466665430000006,0.7386666482 1.2639999684,1.3359999666 2.306666609,1.7919999552 c1.0413333073000002,0.4546666553000001 2.2146666113,0.6826666496 3.5159999121000003,0.6826666496 c1.1573333044000003,0 2.1786666122000002,-0.17199999570000002 3.0639999234000004,-0.5173333204000001 c0.8853333112000003,-0.346666658 1.5439999614,-0.8213333128000002 1.9786666172,-1.4239999644 c0.4319999892000001,-0.6013333183 0.6479999838000001,-1.2586666352000002 0.6479999838000001,-1.9679999508000001 c0,-0.7213333153000001 -0.20799999480000003,-1.3506666328999999 -0.6239999844,-1.8893332861 c-0.4146666563000001,-0.5386666532000001 -1.1039999724,-0.9893333086000001 -2.0653332817,-1.3559999661 c-0.6159999846,-0.23999999400000005 -1.9786666172,-0.6146666513000001 -4.0879998978,-1.1226666386000002 c-2.1106666139000003,-0.5066666540000001 -3.5893332436000005,-0.9853333087000001 -4.4373332224,-1.4359999641 c-1.0986666392000002,-0.5746666523000001 -1.9173332854000003,-1.2893333011 -2.4559999386,-2.1426666131000003 c-0.5386666532000001,-0.8519999787000002 -0.8079999798000002,-1.8079999548000003 -0.8079999798000002,-2.8653332617 c0,-1.1613333043000003 0.3293333251000001,-2.2466666105 0.9879999753000002,-3.2559999186 c0.6573333169000001,-1.0093333081000002 1.6199999595,-1.7759999556000001 2.8839999279000006,-2.2999999425000004 c1.2639999684,-0.5226666536000001 2.6706665999,-0.7839999804000002 4.2173332279,-0.7839999804000002 c1.7039999574000002,0 3.2053332532,0.27333332650000003 4.5079998873000005,0.8213333128000002 c1.3013333008,0.5479999863 2.3013332758000002,1.3533332995 3.0026665915999997,2.4173332729 c0.6999999825000001,1.0639999734 1.0759999731,2.2679999433 1.1279999718000002,3.6146665763000008 l-2.9159999271,0.22933332760000003 c-0.15733332940000003,-1.4493332971 -0.6866666495,-2.5439999364 -1.5893332936,-3.2853332512 c-0.9039999774000003,-0.7413333148000001 -2.2399999440000005,-1.1106666389000002 -4.0039998999,-1.1106666389000002 c-1.8399999540000003,0 -3.1786665872,0.3373333249 -4.0199998995,1.0119999747000001 c-0.8413333123000002,0.6759999831000001 -1.2613333018000001,1.4879999628000002 -1.2613333018000001,2.4399999390000002 c0,0.8266666460000002 0.29733332590000006,1.506666629 0.8933333110000002,2.0399999490000003 c0.5839999854000001,0.5346666533000001 2.1133332805,1.0813333063000001 4.582666552100001,1.639999959 c2.4706666049000003,0.5599999860000001 4.165333229200001,1.0479999738 5.0853332062000005,1.4653332967000001 c1.3359999666,0.6159999846 2.3239999419000004,1.3973332984000002 2.9613332593000004,2.3426666081 c0.6373333174000001,0.9453333097000002 0.9559999761000001,2.0346666158 0.9559999761000001,3.2653332517 c0,1.2226666361 -0.3506666579,2.3746666073000005 -1.0493333071000002,3.4546665803000005 c-0.6999999825000001,1.0826666396000002 -1.7026666241000004,1.9226666186000003 -3.013333258,2.5226666036000003 c-1.3093333006,0.5999999850000001 -2.7853332637,0.9013333108000002 -4.4226665561,0.9013333108000002 c-2.0773332814,0 -3.8186665712,-0.3039999924000001 -5.2213332028,-0.9093333106000002 c-1.4039999649,-0.6053333182 -2.5053332707,-1.5173332953999998 -3.3039999174000005,-2.7346665983000005 c-0.7973333134000001,-1.2159999696000001 -1.2186666362,-2.5919999352 -1.2599999685,-4.126666563500001 " stroke-width="0" fill="#f29b10" fill-opacity="1" stroke="#242424" stroke-opacity="1"/><path inkscape:connector-curvature="0" id="path5225" style="fill-rule: nonzero;" d="m754.7506477979,916.2359990941 l-8.887999777800001,-22.9799994255 h3.2959999176 l5.9706665174,16.6879995828 c0.4799999880000001,1.3373332998999998 0.8826666446000002,2.5906666019 1.2066666365,3.7599999060000004 c0.3559999911,-1.2519999687 0.7679999808000001,-2.5066666040000003 1.2386666357,-3.7599999060000004 l6.2093331781000005,-16.6879995828 h3.1079999223 l-8.997333108400001,22.9799994255 z" stroke-width="0" fill="#f29b10" fill-opacity="1" stroke="#242424" stroke-opacity="1"/><path inkscape:connector-curvature="0" id="path5227" style="fill-rule: nonzero;" d="m780.346647158,907.2359993191 v-2.7079999323000004 h9.7293330901 v8.5173331204 c-1.4933332960000003,1.1906666369000003 -3.0359999241000004,2.0866666145 -4.6239998844,2.6853332662 c-1.5879999603000001,0.6013333183 -3.2173332529000005,0.9013333108000002 -4.8879998778000004,0.9013333108000002 c-2.2586666102,0 -4.3079998923,-0.4839999879000001 -6.150666512900001,-1.4506666304000002 c-1.8453332872000003,-0.9666666425000001 -3.2373332524,-2.3653332742 -4.1773332289,-4.1946665618 c-0.9399999765000001,-1.8293332876000001 -1.4106666314,-3.8733332365000006 -1.4106666314,-6.1306665134000005 c0,-2.2373332774000003 0.46799998830000006,-4.3253332252000005 1.4026666316,-6.263999843400001 c0.9346666433000002,-1.9399999515000002 2.279999943,-3.3799999155000005 4.0346665658,-4.319999892 c1.7559999561000004,-0.9413333098000002 3.7773332389000003,-1.4106666314 6.065333181700001,-1.4106666314 c1.6599999585000003,0 3.1626665876,0.26933332660000003 4.5053332207,0.8079999798000002 c1.3426666331,0.5386666532000001 2.3946666068,1.2906666344000002 3.1573332544,2.2519999437 c0.7626666476000001,0.9626666426000001 1.3426666331,2.2186666112 1.7399999565000004,3.7693332391000003 l-2.7439999314,0.7506666479000002 c-0.3453333247,-1.1706666374 -0.7733333140000002,-2.0906666144000003 -1.2866666345000002,-2.7613332643 c-0.5106666539000001,-0.6706666499 -1.2426666356,-1.2079999698000001 -2.1933332785,-1.6106666264 c-0.9519999762000001,-0.40266665660000006 -2.0079999498000003,-0.6039999849000001 -3.1679999208,-0.6039999849000001 c-1.3893332986000002,0 -2.5919999352,0.21066666140000004 -3.6053332432000005,0.6346666508000001 c-1.0146666413000003,0.4226666561000001 -1.8333332875000001,0.9799999755000002 -2.4546666053000004,1.6693332916 c-0.6213333178,0.6893333161 -1.1053333057,1.4466666305 -1.4506666304000002,2.2719999432000004 c-0.5839999854000001,1.4213332978000002 -0.8773333114000003,2.9626665926 -0.8773333114000003,4.6239998844 c0,2.0479999488000002 0.35333332450000005,3.7613332393000003 1.0586666402,5.139999871500001 c0.7053333157,1.3813332988 1.7319999567,2.4039999399 3.0799999230000004,3.0733332565 c1.3479999663,0.6679999833 2.7799999305000003,1.0026666416000003 4.2959998926,1.0026666416000003 c1.3173333004,0 2.6026666016,-0.25199999370000004 3.8586665702000005,-0.7573333144000001 c1.2533333020000001,-0.5066666540000001 2.2039999449,-1.0453333072000002 2.8519999287000006,-1.6199999595 v-4.2679998933 z" stroke-width="0" fill="#f29b10" fill-opacity="1" stroke="#242424" stroke-opacity="1"/><path inkscape:connector-curvature="0" id="path5229" style="fill-rule: nonzero;" d="m794.9853134587,913.0279991743 h3.2079999198 v3.2079999198 h-3.2079999198 z" stroke-width="0" fill="#f29b10" fill-opacity="1" stroke="#242424" stroke-opacity="1"/><path inkscape:connector-curvature="0" id="path5231" style="fill-rule: nonzero;" d="m804.9399798765,907.9159993021 c0,2.1319999467 0.46533332170000014,3.7279999068000005 1.3946666318,4.7906665469 c0.9293333101000003,1.0599999735 2.0986666142000003,1.5919999602 3.5093332456,1.5919999602 c1.3999999650000001,0 2.5639999359,-0.5346666533000001 3.493333246,-1.59999996 c0.9293333101000003,-1.06666664 1.3946666318,-2.6919999327000004 1.3946666318,-4.877333211400001 c0,-2.0599999485 -0.46799998830000006,-3.6199999095 -1.4026666316,-4.6826665496 c-0.9346666433000002,-1.0586666402 -2.0959999476,-1.5906666269 -3.4853332462,-1.5906666269 c-1.4106666314,0 -2.5799999355,0.5293333201000001 -3.5093332456,1.5839999604 c-0.9293333101000003,1.0573333069000002 -1.3946666318,2.6506666004 -1.3946666318,4.783999880400001 m-2.8959999276,-0.002666666600000001 c0,-3.0826665896000005 0.8559999786000002,-5.3653331992 2.5693332691000004,-6.849333162100001 c1.4293332976000002,-1.2319999692 3.173333254,-1.8493332871000001 5.2306665359,-1.8493332871000001 c2.2866666095,0 4.1546665628,0.7506666479000002 5.606666526500001,2.2493332771000003 c1.4519999637,1.4999999625 2.1773332789,3.5706665774 2.1773332789,6.214666511300001 c0,2.1399999465 -0.32266665860000004,3.8253332377000007 -0.9639999759000002,5.0533332070000005 c-0.6413333173000001,1.2279999693 -1.5773332939000002,2.1813332788000004 -2.8026665966,2.8599999285 c-1.226666636,0.6786666497 -2.5653332692,1.0186666412000003 -4.0173332329,1.0186666412000003 c-2.3279999418,0 -4.2106665614,-0.7479999813000001 -5.646666525500001,-2.2413332773000003 c-1.4359999641,-1.4933332960000003 -2.1533332795000004,-3.6466665755000007 -2.1533332795000004,-6.455999838600001 " stroke-width="0" fill="#f29b10" fill-opacity="1" stroke="#242424" stroke-opacity="1"/><path inkscape:connector-curvature="0" id="path5233" style="fill-rule: nonzero;" d="m820.9053128107,916.2359990941 v-16.6466662505 h2.519999937 v2.5266666035000003 c0.6506666504,-1.1813333038000002 1.2493333021000002,-1.9613332843000002 1.799999955,-2.3359999416000004 c0.5493333196000001,-0.3773333239000001 1.1533333045000003,-0.5653333192000001 1.8146666213,-0.5653333192000001 c0.9533333095000002,0 1.9226666186000003,0.3039999924000001 2.9066665940000003,0.9093333106000002 l-0.9866666420000002,2.6093332681000003 c-0.6879999828000001,-0.4013333233000001 -1.3759999656000002,-0.6013333183 -2.0653332817,-0.6013333183 c-0.6146666513000001,0 -1.1666666375,0.18399999540000003 -1.6573332919000001,0.5559999861000001 c-0.4893333211000001,0.37066665740000004 -0.8399999790000002,0.8853333112000003 -1.0479999738,1.5439999614 c-0.3159999921,1.0026666416000003 -0.47199998820000005,2.0999999475 -0.47199998820000005,3.2906665844000003 v8.713333115500001 z" stroke-width="0" fill="#f29b10" fill-opacity="1" stroke="#242424" stroke-opacity="1"/><path inkscape:connector-curvature="0" id="path5235" style="fill-rule: nonzero;" d="m833.4359791641,907.6159993096 c0,2.1853332787000004 0.4333333225000001,3.7786665722 1.2999999675,4.781333213800001 c0.8653333117000002,1.0039999749000001 1.9506666179000003,1.5053332957 3.2546665853,1.5053332957 c1.2946666343,0 2.3786666072,-0.4986666542000001 3.2559999186,-1.4973332959 c0.8773333114000003,-0.9973333084000002 1.3146666338,-2.5626666026000002 1.3146666338,-4.695999882600001 c0,-2.0373332824 -0.4506666554000001,-3.5733332440000005 -1.3546666328,-4.6093332181 c-0.9013333108000002,-1.0333333075 -1.9893332836000002,-1.5519999612000002 -3.2626665851000003,-1.5519999612000002 c-1.2519999687,0 -2.3159999421000004,0.5106666539000001 -3.1933332535,1.5293332951 c-0.8759999781000002,1.0186666412000003 -1.3146666338,2.5319999367 -1.3146666338,4.5386665532 m-2.333333275,9.994666416800001 l2.7506665979000005,0.4173333229000001 c0.11466666380000003,0.8426666456000002 0.4333333225000001,1.4573332969000001 0.9533333095000002,1.8426666206000002 c0.6999999825000001,0.5213333203000001 1.6546666253000002,0.7813333138000002 2.8639999284,0.7813333138000002 c1.3026666341,0 2.3093332756000002,-0.26133332680000004 3.0199999245000004,-0.7839999804000002 c0.7079999823,-0.5226666536000001 1.1879999703000002,-1.2546666353000002 1.4386666307,-2.1959999451000005 c0.1453333297,-0.5759999856000001 0.21333332800000004,-1.7826666221000003 0.20266666160000005,-3.6239999094 c-1.2319999692,1.4586666302000002 -2.7653332641999997,2.1879999453 -4.6039998849,2.1879999453 c-2.2866666095,0 -4.0559998986,-0.8253333127000002 -5.3093332006,-2.4773332714 c-1.2519999687,-1.6506666254 -1.8786666197000002,-3.6293332426 -1.8786666197000002,-5.9399998515000005 c0,-1.5879999603000001 0.28799999280000005,-3.0533332570000002 0.8626666451000002,-4.395999890100001 c0.5733333190000001,-1.3413332998 1.4066666315,-2.3799999405000003 2.4986666042000003,-3.1106665889000005 c1.0906666394000002,-0.7306666484000001 2.373333274,-1.0973333059000001 3.8453332372000006,-1.0973333059000001 c1.9626666176,0 3.5826665771000004,0.7919999802000002 4.8559998786000005,2.3746666073000005 v-1.99999995 h2.6039999349 v14.3853329737 c0,2.5919999352 -0.26266666010000006,4.4279998893000005 -0.7906666469000001,5.5079998623 c-0.5279999868000002,1.0813333063000001 -1.3639999659,1.9346666183 -2.5066666040000003,2.5626666026000002 c-1.1453333047000003,0.6266666510000001 -2.5519999362,0.9399999765000001 -4.2239998944,0.9399999765000001 c-1.9853332837000002,0 -3.5893332436000005,-0.4466666555000001 -4.8119998797,-1.3399999665 c-1.2226666361,-0.8933333110000002 -1.8119999547,-2.2373332774000003 -1.7706666224,-4.0346665658 " stroke-width="0" fill="#f29b10" fill-opacity="1" stroke="#242424" stroke-opacity="1"/></g><g id="g5926" stroke-width="0" fill="#f29b10" fill-opacity="1" stroke="#242424" stroke-opacity="1"><path inkscape:connector-curvature="0" id="path5237" style="fill-rule: evenodd;" d="m306.2173256779,454.50801063729995 c35.4613324468,-30.866665895 73.7293314901,-46.2453321772 119.3519970162,-22.675999433100003 c-38.2826657096,-7.9293331351 -84.5759978856,4.2346665608 -119.3519970162,22.675999433100003 M384.173323729,533.800008655 c10.9586663927,-35.771999105700004 30.3293325751,-62.266665110000005 71.0613315568,-65.5506650279 c-29.1933326035,10.7586663977 -55.337331949900005,38.458665705200005 -71.0613315568,65.5506650279 m68.6919982827,16.631999584200003 c-4.949333209600001,-50.7813320638 5.558666527700001,-94.2919976427 55.122665288600004,-119.7706636724 c-31.1173325554,28.8413326123 -49.519998762,77.4199980645 -55.122665288600004,119.7706636724 m61.626665126,300.7079924823 l4.9213332103,-132.8773300114 c1.5919999602,-43.0693322566 20.3813328238,-79.4999980125 54.551998636200004,-105.76799735579999 c33.72666582350001,-25.931999351700004 57.626665226,-62.361331774300005 64.5373317199,-101.01866414119999 c5.1279998718,-28.697332615900002 12.0826663646,-57.407998564799996 20.8226661461,-85.98266451709999 c12.502666354100002,-40.88133231130001 -1.5159999621,-80.1186646637 -35.626665776,-99.71999750700002 l-16.2693329266,-4.0599998985 c-16.5133329205,-4.1213332303 -33.8333324875,-3.7013332408 -50.1253320802,1.2119999697000001 c-21.8679994533,6.595999835100001 -45.1106655389,7.1586664877 -67.2733316515,1.6293332926 l19.8239995044,-0.8493333121000002 c17.0613329068,-0.7319999817000001 33.6826658246,-5.621333192800001 48.425332122700006,-14.238666310700001 c19.9999995,-11.698666374200002 43.7986655717,-14.2479996438 65.506665029,-7.5106664789 l0.019999999500000004,-5.9919998502 c0.29733332590000006,-81.9653312842 20.746666148000003,-166.4079958398 59.8439985039,-247.11466048880004 c9.266666435000001,-19.1253328552 1.7133332905000003,-38.8106656964 -17.1013329058,-44.5746655523 c-18.815999529600003,-5.7666665225000004 -42.1679989458,4.447999888800001 -52.8813320113,23.129332755100002 c-2.4679999383,4.3026665591 -5.1013332058000005,9.725333090200001 -7.8573331369,16.003999599900002 c-3.7719999057000004,8.5946664518 -3.5239999119000003,17.523999561900002 0.7146666488000001,25.897332685900004 c4.2373332274,8.373333124 11.2879997178,13.858666320200001 20.4466661555,15.907999602300002 c7.2893331511,1.6319999592 14.5959996351,3.1306665884 21.891999452700002,4.4919998877000005 l-3.7026665741,-0.021333332800000007 c-16.773332914,-0.09466666430000001 -35.6919991077,-2.3559999411000003 -54.7759986306,-6.4959998376 c-6.206666511500001,17.4013328983 -12.575999685600001,36.493332421000005 -18.7053328657,55.0786652897 c-2.6173332679000003,7.9386664682 -1.9746666173000003,15.7239996069 1.9093332856,23.125332755200002 c3.8826665696,7.401333148300001 9.9253330852,12.354666357800001 17.9453328847,14.7106662989 c6.946666493,2.0373332824 13.9373329849,3.8333332375 20.9479994763,5.3719998657 l-3.8346665708000005,0.5093333206000001 c-15.8426662706,2.1013332808 -33.119999172,0.9213333103000003 -50.314665408799996,-3.33333325 c-8.693333116,25.942666018100002 -16.0719995982,46.5453321697 -20.599999485,53.3039986674 c-8.4026664566,12.53333302 -14.665332966700001,25.9546660178 -18.4786662047,39.67599900810001 c-23.4719994132,-57.1386652382 -76.4999980875,-48.8879987778 -95.8493309371,-1.4879999628000002 h-0.0013333333 l-0.15466666280000002,27.6573326419 l-8.8346664458,59.773331839 c-3.7026665741,25.0573327069 11.0173330579,49.185332103700006 34.9933324585,57.3573318994 l-23.477332746400002,-4.6733332165 c-8.806666446500001,-1.7559999561000004 -16.478666254700002,-7.1133331555 -21.1546661378,-14.778666297200001 c-4.6759998831,-7.6653331417000015 -5.930666518400001,-16.9373329099 -3.4613332468,-25.5693326941 l9.5759997606,-108.9879972753 c-34.7666657975,-20.6733328165 -76.2559980936,-7.5719998107 -82.29066460940001,38.7239990319 l-8.8319997792,59.7759985056 c-3.7039999074,25.055999373600002 11.0159997246,49.185332103700006 34.9919991252,57.355998566100006 l-23.477332746400002,-4.6746665498 c-8.806666446500001,-1.7533332895 -16.477332921400002,-7.110666488900001 -21.1533328045,-14.775999630600001 c-4.6773332164,-7.6653331417000015 -5.9319998517,-16.9386662432 -3.4626665801,-25.571999360699998 l10.2866664095,-117.06133040680001 c-10.5546664028,3.7853332387000003 -20.9546661428,6.2866665095 -30.7053325657,7.327999816800001 l-3.2186665862000003,0.3426666581 c3.2479999188,-1.3599999660000002 6.490666504400001,-2.7773332639000006 9.723999756900001,-4.2493332271 c12.959999676,-5.8959998526 19.357332849400002,-20.406666156500002 14.9706662924,-33.9519991512 c-3.9746665673,-12.2786663597 -8.2346664608,-24.435999389100004 -12.777333013900002,-36.4586657552 c-13.649332992100002,5.346666533 -27.017332657900003,9.586666427 -39.062665690100005,12.3506663579 l-3.1119999222000003,0.7146666488000001 c4.306666559,-1.6773332914 8.617333117900001,-3.4079999148000004 12.925333010200001,-5.186666537000001 c7.7879998053,-3.2173332529000005 13.333333,-8.786666447 16.5173329204,-16.5893329186 c3.1799999205000002,-7.802666471600001 3.1119999222000003,-15.662666275100001 -0.20533332820000005,-23.407999414800003 c-3.7239999069000005,-8.693333116 -7.599999810000001,-17.3119995672 -11.6253330427,-25.850666020400002 c-28.931999276700004,-44.0866655645 -92.70799768230002,-29.2453326022 -62.5133317705,29.450665930400003 c9.990666416900002,19.418666181200003 25.7679993558,43.3453322497 29.3133326005,57.5133318955 L264.5053267207,426.840011329 c8.4546664553,65.0293317076 23.190666086900002,103.4879974128 49.4026654316,149.1546629378 l23.1226660886,21.2239994694 c30.722665898600003,28.199999294999998 73.7839981554,38.627999034300004 114.0026638166,27.609332643100004 l-32.7906658469,143.76266307260002 l13.9239996519,-116.3039970924 l-23.33333275,68.85199827870001 l10.7239997319,-77.6386647257 l-14.0053329832,-0.693333316 c-22.4346661058,-1.1133333055 -44.6306655509,-4.6706665499 -66.2039983449,-10.5773330689 L289.10399277240003,839.7053343407 c67.7786649722,-4.5519998862 185.5173286954,71.6146648763 225.38799436530002,11.434666380800001 " stroke-width="0" fill="#f29b10" fill-opacity="1" stroke="#242424" stroke-opacity="1"/></g></g></g></svg>